<?xml version="1.0" encoding="UTF-8" standalone="no"?>
<svg
   viewBox="0 0 174 200"
   width="174"
   height="200"
   role="img"
   aria-label="NanoQuRe logo placeholder"
   version="1.1"
   id="svg2"
   sodipodi:docname="NanoQuRe.svg"
   inkscape:version="1.4 (86a8ad7, 2024-10-11)"
   xmlns:inkscape="http://www.inkscape.org/namespaces/inkscape"
   xmlns:sodipodi="http://sodipodi.sourceforge.net/DTD/sodipodi-0.dtd"
   xmlns="http://www.w3.org/2000/svg"
   xmlns:svg="http://www.w3.org/2000/svg">
  <defs
     id="defs2" />
  <sodipodi:namedview
     id="namedview2"
     pagecolor="#ffffff"
     bordercolor="#666666"
     borderopacity="1.0"
     inkscape:showpageshadow="2"
     inkscape:pageopacity="0.0"
     inkscape:pagecheckerboard="0"
     inkscape:deskcolor="#d1d1d1"
     inkscape:zoom="4.145"
     inkscape:cx="87.092883"
     inkscape:cy="100"
     inkscape:window-width="1920"
     inkscape:window-height="1009"
     inkscape:window-x="1912"
     inkscape:window-y="-8"
     inkscape:window-maximized="1"
     inkscape:current-layer="svg2" />
  <title
     id="title1">NanoQuRe logo placeholder</title>
  <g
     id="g466"
     transform="matrix(3.7780344,0,0,3.8804874,-502.16725,-52.923765)">
    <text
       xml:space="preserve"
       style="font-style:normal;font-weight:normal;font-size:6.39516px;line-height:1.25;font-family:sans-serif;letter-spacing:0px;word-spacing:0px;fill:#495b67;fill-opacity:1;stroke:none;stroke-width:0.159879"
       x="140.20015"
       y="28.142849"
       id="text22"><tspan
         sodipodi:role="line"
         id="tspan22"
         x="140.20015"
         y="28.142849"
         style="font-style:normal;font-variant:normal;font-weight:normal;font-stretch:normal;font-family:'OCR-A BT';-inkscape-font-specification:'OCR-A BT';fill:#495b67;fill-opacity:1;stroke-width:0.159879"
         transform="matrix(0.61127784,0,0,0.92236483,18.019409,4.8107954)">nanoQuRe</tspan></text>
    <g
       id="g10"
       transform="translate(-47.988243,-12.700002)">
      <path
         id="path41"
         style="fill:#4d1765;fill-opacity:1;stroke:none;stroke-width:0.0831862;stroke-linecap:round;stroke-linejoin:round;stroke-miterlimit:2.7"
         d="m 213.4954,59.372439 c 0,0.753784 0.19372,1.585716 0.27159,2.729833 0.1552,2.280553 0.0496,5.176991 -1.86739,5.532493 -1.68892,0.313216 -2.45257,-3.644364 -3.64903,-3.026247 -0.18708,0.09665 -0.50302,0.07469 -0.65084,0.639639 -0.17414,0.665574 -0.11664,2.118751 -0.10636,3.014871 0.0158,1.377622 -0.0105,2.779108 0.0144,3.637659 0.0122,0.422656 0.12644,0.918296 -0.0225,0.982025 -0.45734,0.195734 -0.20825,0.443102 -0.73797,0.443102 -0.26594,0 -0.4249,-0.245223 -0.94375,-0.431279 -0.54289,-0.194677 -1.35937,-0.257618 -2.01569,-0.257347 -0.5465,2.27e-4 -1.1686,0.100087 -1.64629,0.311154 -0.3518,0.155438 -0.66583,0.267328 -0.84642,0.254888 -0.17756,-0.01223 -0.62673,0.04309 -0.70836,-0.374164 -0.299,-1.528127 0.11468,-5.283484 -0.0611,-7.165604 -0.0387,-0.413758 -0.27385,-0.709396 -0.43647,-0.880453 -0.61259,-0.644311 -1.26058,0.146783 -2.45972,2.167177 -0.68998,1.162521 -2.27676,0.624978 -2.67088,-0.137373 -0.49541,-0.958289 -0.60468,-1.806571 -0.70523,-2.391092 -0.21351,-1.241231 0.11883,-4.765356 0.48845,-5.885804 0.17334,-0.52546 0.58141,-1.682523 1.2857,-2.44084 0.56034,-0.603319 1.40087,-0.90761 1.35519,-0.962584 -0.19079,-0.229624 -0.62404,-0.47001 -0.8979,-0.789119 -0.35969,-0.419114 -0.55725,-0.931712 -0.69874,-1.310593 -0.29759,-0.796892 -0.20935,-1.51045 -0.0409,-2.198303 0.14428,-0.589131 0.32318,-1.059724 0.71104,-1.541376 0.57841,-0.718277 2.46582,-1.247608 3.24587,-1.392926 1.24492,-0.23192 3.0686,-0.336309 4.29984,-0.336309 2.67502,0 7.39624,0.528181 8.04942,2.513406 0.30486,0.926575 0.36011,0.755784 0.44756,1.942964 0.0374,0.506589 -0.37397,1.629501 -0.94221,2.273664 -0.38027,0.431074 -0.96507,0.741159 -0.89005,0.780393 0.29957,0.156677 0.8618,0.414641 1.14388,0.824081 0.31286,0.454107 0.83113,0.996523 1.18325,1.71131 0.32811,0.666045 0.50169,1.512506 0.50169,1.762754 z"
         sodipodi:nodetypes="ssssssssssssssssssssssssssssssssssss" />
      <path
         id="path42"
         style="fill:#d4b8df;fill-opacity:1;stroke:none;stroke-width:0.0831862;stroke-linecap:round;stroke-linejoin:round;stroke-miterlimit:2.7"
         d="m 212.75205,62.271083 c 0.11455,0.74503 0.28425,2.398474 -7.6e-4,3.469085 -0.31731,1.191953 -0.45623,1.558548 -1.10868,1.797327 -1.6131,0.59034 -2.25803,-3.547094 -3.4545,-2.928977 -0.18708,0.09665 -0.50302,0.07469 -0.65084,0.639639 -0.17414,0.665574 -0.11663,2.118751 -0.10635,3.014871 0.0158,1.377622 -0.0105,2.779108 0.0144,3.637659 0.0122,0.422656 0.12643,0.918296 -0.0225,0.982025 -0.45735,0.195734 -0.2812,0.3434 -0.66745,0.411489 -0.26191,0.04617 -0.49543,-0.21361 -1.01428,-0.399666 -0.54289,-0.194677 -1.35937,-0.257618 -2.01568,-0.257347 -0.54651,2.27e-4 -1.16861,0.100087 -1.6463,0.311154 -0.35179,0.155438 -0.60746,0.442414 -0.78805,0.429974 -0.17756,-0.01223 -0.68509,-0.131997 -0.76673,-0.54925 -0.299,-1.528127 0.11469,-5.283484 -0.0611,-7.165604 -0.0387,-0.413758 -0.27385,-0.709396 -0.43648,-0.880453 -0.61258,-0.644311 -1.26058,0.146783 -2.45972,2.167177 -0.68998,1.162521 -1.65423,0.58607 -2.04835,-0.17628 -0.49541,-0.958289 -0.37273,-2.013379 -0.41342,-2.605087 -0.0774,-1.124507 0.29392,-3.578662 0.66354,-4.699111 0.17334,-0.525459 0.30906,-1.390713 1.01335,-2.14903 0.56034,-0.603319 1.3425,-0.965972 1.86098,-1.546203 0.19892,-0.222613 -0.83803,-1.306532 -1.11188,-1.625641 -0.35969,-0.419114 -0.0465,-2.133286 -0.24158,-2.48756 -0.27814,-0.505081 -1.38632,-0.703109 -1.21782,-1.390961 0.14428,-0.589131 -0.0728,-0.605608 0.31508,-1.087259 0.57841,-0.718278 2.4727,-1.13756 3.25275,-1.282878 1.24493,-0.23192 3.01996,-0.511395 4.2512,-0.511395 2.67503,0 6.778,0.371958 8.03636,2.391961 0.33707,0.541086 -0.71904,1.715148 -1.33886,1.889323 -0.0923,0.02595 0.30691,1.921312 -0.26133,2.565474 -0.38027,0.431074 -1.0785,1.240667 -1.08459,1.325105 -0.0506,0.701388 1.3676,1.114984 1.64969,1.524424 0.31286,0.454107 0.69495,0.860346 1.04707,1.575133 0.32811,0.666045 0.58039,2.099031 0.61842,2.346373 z"
         sodipodi:nodetypes="ssssssssssssssssssssssssssssssssssss" />
      <path
         id="path43"
         style="opacity:0.752475;fill:#ad78c3;fill-opacity:1;fill-rule:nonzero;stroke:none;stroke-width:0.0831862;stroke-linecap:round;stroke-linejoin:round;stroke-miterlimit:2.7"
         d="m 206.49938,65.550456 c -0.0255,0.687503 0.0859,3.005819 -0.0238,3.895258 -0.13818,1.12033 0.30191,3.224285 0.009,3.656963 -0.14906,0.22025 -0.10707,0.04636 -0.62592,-0.139696 -0.54289,-0.194676 -1.24244,-0.312642 -1.89876,-0.312371 -0.54651,2.27e-4 -1.26489,0.09321 -1.75634,0.22174 -0.37209,0.09731 -0.71411,0.480234 -0.71928,0.29929 -0.0256,-0.899238 0.20327,-5.914601 0.0594,-7.453488 -0.0161,-0.172374 0.0186,-3.543199 0.0427,-7.05222 0.0222,-3.233148 0.0396,-6.589849 -0.094,-7.529272 -0.0391,-0.274952 -0.72592,-0.599568 -0.57717,-0.844066 0.33892,-0.557044 0.77744,-0.902487 1.33869,-0.955244 0.6855,-0.06444 1.28723,-0.165757 1.7704,-0.156744 1.91037,0.03564 2.65213,0.565213 2.98302,0.931759 0.0588,0.06516 0.13872,0.336683 -0.0399,0.560941 -0.14454,0.181527 -0.52972,0.269954 -0.53856,0.516091 -0.0824,2.292955 0.0262,7.19898 0.0621,10.902205 0.0136,1.399925 0.0404,2.592593 0.008,3.458854 z"
         sodipodi:nodetypes="sssssssssssssssssss" />
      <path
         id="path44"
         style="fill:#ede1f2;fill-opacity:1;stroke:none;stroke-width:0.0831862;stroke-linecap:round;stroke-linejoin:round;stroke-miterlimit:2.7"
         d="m 197.25785,51.602553 c -0.12437,-0.563027 -1.38632,-0.703109 -1.21782,-1.390961 0.14428,-0.589131 -0.0728,-0.605608 0.31508,-1.08726 0.57841,-0.718277 2.4727,-1.137559 3.25275,-1.282877 1.24493,-0.231921 3.01996,-0.511395 4.2512,-0.511395 2.67503,0 6.778,0.371958 8.03636,2.391961 0.33707,0.541085 -0.41594,1.378297 -0.96746,1.710494 -0.50764,0.305775 -1.37713,-0.215079 -1.98251,-0.319089 -0.45686,-0.07849 -1.0709,-0.2685 -1.48803,-0.324119 -0.2925,-0.039 -0.37021,0.04538 -0.60912,-0.154427 -0.13118,-0.109711 0.11196,-0.442053 -0.10445,-0.67243 -0.40593,-0.432132 -1.8142,-0.73355 -2.3768,-0.726665 -0.60318,0.0074 -2.06449,0.03883 -2.53856,0.331123 -0.26268,0.161965 -0.54879,0.308535 -0.62935,0.514836 -0.0774,0.198347 0.0471,0.45945 -0.0206,0.47334 -2.01304,0.413539 -3.92072,1.384475 -3.92072,1.047467 z"
         sodipodi:nodetypes="sssssssssssssssss" />
      <path
         style="fill:none;fill-opacity:1;stroke:#4d1765;stroke-width:0.332745;stroke-linecap:butt;stroke-linejoin:miter;stroke-dasharray:none;stroke-opacity:1"
         d="m 201.37196,50.743852 c 0,0 -0.29698,-0.09671 -0.31988,-0.359869 -0.0164,-0.188126 0.017,-0.362783 0.12381,-0.495216 0.23434,-0.290485 0.64963,-0.378697 1.00419,-0.495224 0.47119,-0.154859 1.22338,-0.200346 1.77628,-0.214845 0.4426,-8.32e-4 1.24998,0.04301 1.8152,0.228571 0.3546,0.11641 0.76003,0.21295 1.00419,0.495224 0.11669,0.134894 0.19888,0.323184 0.16508,0.508971 -0.0504,0.276916 -0.29153,0.319433 -0.29153,0.319433"
         id="path45"
         sodipodi:nodetypes="csaacaasc" />
      <path
         style="fill:none;fill-opacity:1;stroke:#4d1765;stroke-width:0.220096px;stroke-linecap:butt;stroke-linejoin:miter;stroke-opacity:1"
         d="m 201.48716,73.247921 c 0.86794,-0.826513 4.12216,-0.855728 5.04541,0.02346"
         id="path46"
         sodipodi:nodetypes="cc" />
      <path
         style="fill:#d4b8df;fill-opacity:1;stroke:#4d1765;stroke-width:0.332745;stroke-linecap:butt;stroke-linejoin:miter;stroke-dasharray:none;stroke-opacity:1"
         d="m 197.45122,51.551334 c 0.0409,-0.05515 3.28877,-0.862224 3.57953,-0.914332 0.2534,-0.04542 0.4752,0.227431 0.48633,0.447433 0.0846,1.671876 0.008,20.29456 0.0244,22.017055 0.002,0.194888 -0.41166,0.138796 -0.5829,0.04575 -0.26639,-0.144777 -0.42746,-0.496447 -0.43357,-0.799569 -0.0185,-0.91781 0.002,-4.334167 0.0101,-6.060638 8.3e-4,-0.251172 0.014,-0.515521 -0.0199,-0.73366 -0.0797,-0.512469 -0.23964,-0.775296 -0.53084,-0.932143 -1.64679,-0.887006 -1.85733,2.887509 -3.46695,2.843495 -0.62579,-0.01714 -1.05726,-0.831529 -1.20613,-1.439595 -0.25517,-1.042182 -0.17269,-2.382087 -0.0973,-3.61845 0.10692,-1.753306 0.50972,-3.592778 1.4785,-5.058036 0.46251,-0.699537 1.82034,-1.16142 1.94542,-1.595228 0.21506,-0.745881 -0.98164,-1.255063 -1.1867,-2.003756 -0.19357,-0.706741 -0.30326,-1.789742 5e-5,-2.198303 z"
         id="path47"
         sodipodi:nodetypes="ssssasssssssasass" />
      <path
         style="fill:none;fill-opacity:1;stroke:#4d1765;stroke-width:0.332745;stroke-linecap:butt;stroke-linejoin:miter;stroke-dasharray:none;stroke-opacity:1"
         d="m 196.02134,49.834521 c 0,0 -0.4592,1.212772 -0.46689,1.848123 -0.007,0.615054 0.14387,1.244257 0.40854,1.7995 0.18281,0.383513 0.78788,1.001878 0.78788,1.001878 0,0 0.68089,0.496081 0.64198,0.496081 -0.0389,0 -0.87386,0.482904 -1.21588,0.836512 -0.53526,0.553396 -0.95158,1.233626 -1.24505,1.9454 -0.2984,0.723753 -0.3835,1.520851 -0.49607,2.295573 -0.10473,0.7208 -0.1278,1.451441 -0.16536,2.178846 -0.0244,0.47293 -0.0588,0.947008 -0.0389,1.420146 0.0196,0.466134 0.0704,0.932276 0.15563,1.390956 0.0701,0.377316 0.14507,0.759132 0.29182,1.113747 0.10696,0.258459 0.24698,0.507377 0.42313,0.724651 0.13371,0.164933 0.22244,0.27162 0.47175,0.427993 0.26036,0.163303 0.90933,0.152439 0.90933,0.152439"
         id="path48"
         sodipodi:nodetypes="caacsaaaaaaaasc" />
      <path
         style="fill:none;fill-opacity:1;stroke:#4d1765;stroke-width:0.332745;stroke-linecap:butt;stroke-linejoin:miter;stroke-dasharray:none;stroke-opacity:1"
         d="m 210.63441,51.551334 c 0,0 0.74153,-0.367724 0.99215,-0.680887 0.21821,-0.272651 0.4036,-0.623796 0.38909,-0.972704 -0.0108,-0.260781 -0.17794,-0.50425 -0.35018,-0.700345 -0.23739,-0.270255 -0.57757,-0.433658 -0.8949,-0.603066 -0.43872,-0.234228 -0.90745,-0.412932 -1.38123,-0.564173 -0.40607,-0.129628 -0.82698,-0.208647 -1.24504,-0.291809 -0.39314,-0.0782 -0.78929,-0.14215 -1.1867,-0.194542 -0.45227,-0.05963 -0.90632,-0.110414 -1.36178,-0.136176 -0.48562,-0.02747 -0.97268,-0.0249 -1.58219,-0.01946 -0.60952,-0.0054 -1.09658,-0.008 -1.5822,0.01946 -0.45546,0.02576 -0.9095,0.07655 -1.36178,0.136176 -0.3974,0.05239 -0.79355,0.116339 -1.18669,0.194542 -0.41807,0.08316 -0.83898,0.162181 -1.24505,0.291809 -0.47378,0.151241 -0.94251,0.329943 -1.38123,0.56417 -0.31732,0.169409 -0.6575,0.332811 -0.89489,0.603067 -0.17225,0.196095 -0.33937,0.439564 -0.35018,0.700344 -0.0145,0.348908 0.17088,0.700054 0.38908,0.972705 0.25063,0.313162 0.99216,0.680887 0.99216,0.680887"
         id="path49"
         sodipodi:nodetypes="caaaaassscsssaaaaac" />
      <path
         style="fill:none;fill-opacity:1;stroke:#4d1765;stroke-width:0.332745;stroke-linecap:butt;stroke-linejoin:miter;stroke-dasharray:none;stroke-opacity:1"
         d="m 210.55165,51.551334 c -0.0409,-0.05515 -3.28878,-0.862224 -3.57954,-0.914332 -0.25339,-0.04542 -0.47519,0.227431 -0.48633,0.447433 -0.0846,1.671876 -0.008,20.29456 -0.0244,22.017055 -0.002,0.194888 0.41165,0.138796 0.5829,0.04575 0.26638,-0.144777 0.42746,-0.496447 0.43356,-0.799569 0.0185,-0.91781 -0.002,-4.334167 -0.0101,-6.060638 -8.3e-4,-0.251172 -0.0141,-0.515521 0.0199,-0.73366 0.0797,-0.512469 0.23964,-0.775296 0.53084,-0.932143 1.64679,-0.887006 1.85734,2.887509 3.46696,2.843495 0.62579,-0.01714 1.05725,-0.831529 1.20613,-1.439595 0.25516,-1.042182 0.17268,-2.382087 0.0973,-3.61845 -0.10691,-1.753306 -0.50972,-3.592778 -1.4785,-5.058036 -0.4625,-0.699537 -1.82034,-1.16142 -1.94541,-1.595228 -0.21507,-0.745881 0.98163,-1.255063 1.1867,-2.003756 0.19356,-0.706741 0.30325,-1.789742 -5e-5,-2.198303 z"
         id="path50"
         sodipodi:nodetypes="ssssasssssssasass" />
      <path
         style="fill:none;fill-opacity:1;stroke:#4d1765;stroke-width:0.332745;stroke-linecap:butt;stroke-linejoin:miter;stroke-dasharray:none;stroke-opacity:1"
         d="m 211.98152,49.834521 c 0,0 0.45921,1.212772 0.4669,1.848123 0.007,0.615054 -0.14388,1.244257 -0.40855,1.7995 -0.18281,0.383513 -0.78788,1.001878 -0.78788,1.001878 0,0 -0.68089,0.496081 -0.64197,0.496081 0.0389,0 0.87385,0.482904 1.21587,0.836512 0.53526,0.553396 0.95158,1.233626 1.24505,1.9454 0.2984,0.723753 0.3835,1.520851 0.49607,2.295573 0.10473,0.7208 0.12781,1.451441 0.16536,2.178846 0.0244,0.47293 0.0588,0.947008 0.0389,1.420146 -0.0196,0.466134 -0.0704,0.932276 -0.15562,1.390956 -0.0701,0.377316 -0.14507,0.759132 -0.29182,1.113747 -0.10696,0.258459 -0.24698,0.507377 -0.42314,0.724651 -0.13371,0.164933 -0.22244,0.27162 -0.47175,0.427993 -0.26036,0.163303 -0.90933,0.152439 -0.90933,0.152439"
         id="path51"
         sodipodi:nodetypes="caacsaaaaaaaasc" />
    </g>
    <path
       style="font-variation-settings:normal;fill:none;fill-opacity:1;stroke:#495b67;stroke-width:1.12084;stroke-linecap:round;stroke-linejoin:miter;stroke-miterlimit:4;stroke-dasharray:none;stroke-dashoffset:0;stroke-opacity:1;stop-color:#000000"
       d="m 135.15887,29.898146 c 1.24659,0.454789 1.44126,3.785591 3.74004,2.637942 1.7093,-0.853352 5.08547,-3.73353 7.25338,-1.901979 0.69502,0.587199 0.002,1.811597 0.95203,2.323731 2.62346,1.414834 8.21079,-1.646185 9.75812,1.579463 0.69277,1.44439 -1.6034,2.897753 -1.83603,4.482061 -0.17855,1.215726 2.18143,1.668861 2.09667,3.89493 -0.0564,1.481568 -1.54967,2.696669 -1.60935,4.308411 -0.0654,1.759067 1.39654,3.126565 1.24671,4.821106 -0.11726,1.326452 -1.59399,2.502267 -1.32604,3.919727 0.21808,1.153847 1.46393,1.977323 1.60935,3.109343 0.24399,1.899867 -1.40477,2.444743 -1.1419,4.234265"
       id="path1165"
       sodipodi:nodetypes="csscsscscssc" />
    <path
       sodipodi:type="star"
       style="fill:none;fill-opacity:1;stroke:#4d1765;stroke-width:0.975664;stroke-linecap:round;stroke-miterlimit:4;stroke-dasharray:none;stroke-opacity:1"
       id="path18"
       sodipodi:sides="6"
       sodipodi:cx="33.866665"
       sodipodi:cy="55.832291"
       sodipodi:r1="19.926361"
       sodipodi:r2="17.335934"
       sodipodi:arg1="1.4684895"
       sodipodi:arg2="1.9920883"
       inkscape:flatsided="false"
       inkscape:rounded="0"
       inkscape:randomized="0"
       d="m 35.901713,75.654461 -9.124401,-4.002067 -9.059626,-4.146614 -1.096309,-9.902998 -0.93874,-9.919173 8.028093,-5.90093 8.120886,-5.772559 9.124402,4.002067 9.059626,4.146615 1.096309,9.902997 0.938739,9.919173 -8.028092,5.90093 z"
       inkscape:transform-center-x="1.76784"
       inkscape:transform-center-y="4.9021042"
       transform="matrix(1.2345274,0.12558609,-0.12558609,1.2345274,121.21562,-33.800434)" />
  </g>
</svg>
