<?xml version="1.0" encoding="UTF-8" standalone="no"?>
<svg
   viewBox="0 0 174 200"
   width="174"
   height="200"
   role="img"
   aria-label="nanotail2 logo placeholder"
   version="1.1"
   id="svg2"
   sodipodi:docname="nanotail2.svg"
   inkscape:version="1.4 (86a8ad7, 2024-10-11)"
   xmlns:inkscape="http://www.inkscape.org/namespaces/inkscape"
   xmlns:sodipodi="http://sodipodi.sourceforge.net/DTD/sodipodi-0.dtd"
   xmlns="http://www.w3.org/2000/svg"
   xmlns:svg="http://www.w3.org/2000/svg">
  <defs
     id="defs2" />
  <sodipodi:namedview
     id="namedview2"
     pagecolor="#ffffff"
     bordercolor="#666666"
     borderopacity="1.0"
     inkscape:showpageshadow="2"
     inkscape:pageopacity="0.0"
     inkscape:pagecheckerboard="0"
     inkscape:deskcolor="#d1d1d1"
     inkscape:zoom="4.145"
     inkscape:cx="87.092883"
     inkscape:cy="100"
     inkscape:window-width="1920"
     inkscape:window-height="1009"
     inkscape:window-x="1912"
     inkscape:window-y="-8"
     inkscape:window-maximized="1"
     inkscape:current-layer="svg2" />
  <title
     id="title1">nanotail2 logo placeholder</title>
  <g
     id="g2"
     transform="matrix(3.7779638,0,0,3.8852955,-92.407542,-52.592654)">
    <g
       id="g24"
       transform="translate(-42.265103,-45.37604)">
      <text
         xml:space="preserve"
         style="font-style:normal;font-weight:normal;font-size:6.39516px;line-height:1.25;font-family:sans-serif;letter-spacing:0px;word-spacing:0px;fill:#ee1d8e;fill-opacity:1;stroke:none;stroke-width:0.159879"
         x="74.098732"
         y="74.518272"
         id="text23"><tspan
           sodipodi:role="line"
           id="tspan23"
           x="74.098732"
           y="74.518272"
           style="font-style:normal;font-variant:normal;font-weight:normal;font-stretch:normal;font-family:'OCR-A BT';-inkscape-font-specification:'OCR-A BT';fill:#ee1d8e;fill-opacity:1;stroke-width:0.159879"
           transform="matrix(0.61127784,0,0,0.92236483,18.019409,4.8107954)">nano</tspan></text>
      <text
         xml:space="preserve"
         style="font-style:normal;font-weight:normal;font-size:6.39516px;line-height:1.25;font-family:sans-serif;letter-spacing:0px;word-spacing:0px;fill:#47194a;fill-opacity:1;stroke:none;stroke-width:0.159879"
         x="89.907585"
         y="74.518265"
         id="text24"><tspan
           sodipodi:role="line"
           id="tspan24"
           x="89.907585"
           y="74.518265"
           style="font-style:normal;font-variant:normal;font-weight:normal;font-stretch:normal;font-family:'OCR-A BT';-inkscape-font-specification:'OCR-A BT';fill:#47194a;fill-opacity:1;stroke-width:0.159879"
           transform="matrix(0.61127784,0,0,0.92236483,18.019409,4.8107954)">tail</tspan></text>
    </g>
    <g
       id="g25"
       transform="translate(0,3.3078176)">
      <path
         id="path7"
         style="fill:#495b67;fill-opacity:1;stroke-width:2.07394;stroke-linecap:round;stroke-linejoin:round;stroke-miterlimit:2.7"
         d="m 45.925125,32.629745 c -0.08456,0.04991 -0.680915,-0.877015 -1.294618,-1.516634 -0.668483,-0.696712 -1.576982,-1.46866 -1.824901,-1.643139 -0.06158,-0.04334 0.647504,-0.875608 0.687761,-0.85598 0.181135,0.08827 1.01552,0.635109 1.675749,1.228174 0.450683,0.404828 1.173268,1.209949 1.174295,1.354835 0.0034,0.47827 -0.320475,1.375071 -0.418253,1.432766 z"
         sodipodi:nodetypes="sssssss" />
      <path
         id="rect7"
         style="fill:#495b67;fill-opacity:1;stroke-width:1.665;stroke-linecap:round;stroke-linejoin:round;stroke-miterlimit:2.7"
         d="m 45.070952,37.613089 v 0.661458 h 1.46761 v 0.773596 h 0.42064 v -0.773596 h 0.65113 v 1.891358 h 0.42994 v -1.891358 h 0.68885 v 0.785482 h 0.42995 v -0.785482 h 0.68885 v 0.785482 h 0.42994 v -0.785482 h 0.68937 v 0.785482 h 0.42994 v -0.785482 h 0.68885 v 1.891358 h 0.42995 v -1.891358 h 0.68885 v 0.785482 h 0.42994 v -0.785482 h 0.68937 v 0.785482 h 0.42995 v -0.785482 h 0.68884 v 0.785482 h 0.42995 v -0.785482 h 0.68885 v 1.891358 h 0.42995 v -1.891358 h 0.68936 v 0.785482 h 0.42995 v -0.785482 h 0.68884 v 0.785482 h 0.42995 v -0.785482 h 0.68885 v 0.785482 h 0.42995 v -0.785482 h 0.68936 v 1.891358 h 0.42995 v -1.891358 h 0.86713 v 2.645834 h -15.67966 v 0.661458 h 15.67966 v 0.363802 h 1.0914 v -0.363802 -3.96875 h -1.0914 z" />
      <path
         id="path5"
         style="fill:#ee1d8e;stroke-width:1.665;stroke-linecap:round;stroke-linejoin:round;stroke-miterlimit:2.7"
         d="m 40.282612,29.06684 c -3.98191,-2e-6 -8.31784,1.153083 -8.31784,4.431771 0,1.891436 -0.97901,7.142075 0.24546,8.056873 0.11234,0.08393 0.33183,0.196169 0.57619,0.244429 1.96354,0.387782 13.18017,0.249798 13.78934,0.183968 0.49636,-0.05364 0.66654,-0.251863 0.73484,-0.398425 0.0808,-0.173291 0.10504,-1.515793 -0.22376,-2.195731 -0.2653,-0.548626 -0.92523,-0.71418 -0.97823,-1.013892 -0.0966,-0.546165 0.54053,-0.852259 0.54053,-1.305347 1e-5,-1.985436 -0.82522,-3.92068 -2.30838,-5.582088 -0.96608,-1.082188 -2.48751,-2.421557 -4.05815,-2.421558 z m -1.09348,1.900143 a 4.4152341,4.4152341 0 0 1 4.41524,4.415234 4.4152341,4.4152341 0 0 1 -4.41524,4.415235 4.4152341,4.4152341 0 0 1 -4.41523,-4.415235 4.4152341,4.4152341 0 0 1 4.41523,-4.415234 z m 6.30866,8.525578 a 0.88867116,0.88867116 0 0 1 0.88832,0.888834 0.88867116,0.88867116 0 0 1 -0.88832,0.888835 0.88867116,0.88867116 0 0 1 -0.88883,-0.888835 0.88867116,0.88867116 0 0 1 0.88883,-0.888834 z" />
      <path
         id="circle6"
         style="fill:#495b67;fill-opacity:1;stroke:none;stroke-width:1.30955;stroke-linecap:round;stroke-linejoin:round;stroke-miterlimit:2.7"
         d="m 39.189192,31.909671 a 3.472656,3.472656 0 0 0 -3.47266,3.472656 3.472656,3.472656 0 0 0 3.47266,3.472657 3.472656,3.472656 0 0 0 3.47266,-3.472657 3.472656,3.472656 0 0 0 -3.47266,-3.472656 z m 2.53731,4.229716 c 0.005,-0.0014 0.0104,0.0014 0.0176,0.0088 0.0766,0.07836 0.008,0.830757 -0.51469,1.34152 -0.52244,0.510763 -1.43608,0.73298 -1.51722,0.548804 -0.15662,-0.355508 1.00356,-0.50933 1.526,-1.020093 0.47346,-0.46288 0.44151,-0.8658 0.48834,-0.879016 z" />
    </g>
    <path
       inkscape:connector-curvature="0"
       style="fill:none;fill-opacity:1;stroke:#47194a;stroke-width:0.145951;stroke-linecap:butt;stroke-linejoin:round;stroke-miterlimit:10;stroke-dasharray:none;stroke-opacity:1"
       d="m 68.978082,50.361589 c -0.09802,-0.262976 -0.136062,-0.746493 -0.149758,-0.206253 -0.01913,-0.683122 -0.05086,-0.06095 -0.05256,0.263466 -0.03764,-0.564852 0.05026,0.02485 -0.14292,0.0094 -0.334211,0.0227 -0.107525,-1.772434 -0.223311,-0.707755 -0.02103,-0.163419 0.004,-0.537224 -0.09392,-0.162157 -0.02623,-0.385502 -0.02163,-0.503406 -0.02743,-0.01815 0.02653,0.264424 -0.118309,-0.471972 -0.125719,0.08036 0.01402,0.407674 -0.04606,1.43769 -0.229329,0.89043 -0.165959,0.244261 -0.181399,-0.20649 -0.337295,0.15169 -0.01592,-0.244483 -0.433696,0.20261 -0.479364,-0.171439 -0.05707,0.347037 -0.308859,-0.03595 -0.25403,0.09847 -0.04726,0.09382 -0.009,0.673371 -0.08862,0.27445 -0.01362,0.355392 -0.06869,0.198216 -0.160792,0.255242 -0.101888,0.03233 -0.243747,-0.1663 -0.392184,0.02754 -0.0802,0.174202 -0.07369,-0.358163 -0.118469,0.01424 -0.133558,-0.449079 -0.149509,0.216705 -0.28562,0.27176 -0.107415,-0.466975 -0.05517,-1.616489 -0.130524,-1.535734 -0.02143,0.009 -0.01552,0.984351 -0.01733,0.210618 -0.01592,-0.104834 -0.08892,-0.265603 -0.06499,-0.258948 0.01612,0.268073 -0.01853,0.33383 -0.06238,0.283344 10e-4,0.297304 -0.155877,0.459036 -0.156037,0.465414 -0.02133,0.262787 -0.06448,-0.627029 -0.06217,-0.07138 0.001,-0.510104 -0.02934,0.366833 -0.03534,-0.09793 -0.02083,0.440872 -0.006,0.166752 -0.02043,-0.106395 0.01261,0.50009 -0.06378,0.167268 -0.117959,0.120788 0.05086,0.536757 -0.0782,-0.925274 -0.171806,-0.224405 0.02153,-0.606158 -0.183461,1.194422 -0.223963,0.301412 -0.007,-0.243764 -0.03454,-0.687597 -0.04256,-0.190136 -0.02083,-0.261046 -0.105213,-0.89364 -0.10377,-0.27715 -0.04025,0.281848 -0.147166,-0.05522 -0.169084,0.468474 0.009,0.305181 -0.118839,1.263229 -0.241974,0.769422 -0.220308,0.610539 0.03384,-0.80061 -0.304544,-1.074693 -0.138715,0.406642 0.03114,0.865943 -0.152812,1.24521 -0.03875,-0.69655 -0.171727,0.58269 -0.18274,-0.05691 -0.04376,-0.312728 0.03715,0.07146 -0.132647,-0.126629 -0.03504,0.367566 -0.193885,0.771257 -0.215422,0.148716 -0.06809,-0.812727 -0.01542,-1.62604 -0.03684,-2.439016 -4.3e-4,0.373775 -0.01552,0.912597 -0.01923,0.241468 0.01161,1.020344 -0.06018,-0.668274 -0.05917,-0.645356 9.71e-4,0.29912 -0.009,1.162561 -0.008,0.406975 -3e-5,-0.25057 -0.003,-1.338344 -0.004,-0.553521 -0.004,0.305767 0.007,1.035136 -0.01001,1.087979 0.01001,-0.429283 -0.01572,-1.740728 -0.07129,-0.924014 -0.004,-0.22829 -0.008,-0.550233 -0.01783,-0.10831 -0.007,-0.17661 -0.01112,-0.813165 -0.01863,-0.294791 -0.008,-0.502466 0.009,0.109125 -0.05957,-0.111683 0.03735,0.278355 -0.09112,0.668722 -0.117779,0.277995 0.008,0.348435 -0.0837,-0.436283 -0.124146,0.08026 -0.0793,-0.335837 -0.04466,0.557989 -0.07049,0.05747 -0.143371,-0.490928 -0.102319,0.669513 -0.138164,0.04828 -0.04146,0.392945 -0.01432,-0.228988 -0.10332,-0.181447 -0.09212,0.548747 -0.107415,-0.338039 -0.11941,0.08928 -0.07079,-0.389905 -0.128112,0.686629 -0.121383,0.01169 -0.01713,0.05826 -0.03604,-0.183578 -0.05817,-0.0056 -0.05647,-0.288383 -0.10344,0.462502 -0.147115,-0.05269 -0.07499,0.574336 0.05046,-0.287323 -0.122194,0.0233 -0.007,-0.253717 -0.104982,0.309171 -0.110069,-0.175137 -0.07189,0.687721 -0.07159,-0.438783 -0.112832,0.215982 -0.03715,0.196244 0.003,-0.315994 -0.04356,-0.0115 -0.04736,-0.387627 -0.03394,-0.174096 -0.132017,-0.0058 -0.04786,-0.522554 -0.05687,0.434497 -0.101768,-0.176185 -0.02313,0.100557 -0.04686,0.178998 -0.04396,-0.09845 -0.001,0.182063 -0.02773,0.403663 -0.04526,0.08147 0.004,0.189219 -0.09732,0.346786 -0.05847,0.06265 -0.02083,0.543649 -0.116336,-0.4747 -0.100997,0.188688 0.01792,0.188352 -0.04886,-0.492055 -0.04996,0.02923 -0.01592,0.345166 0.03214,-0.370391 -0.168422,-0.127743 -0.07579,-0.35889 -0.176402,0.496448 -0.205429,-0.0033 0.03004,0.274834 -0.145283,-0.0049 -0.139265,-0.02754 -0.04046,-0.340111 -0.02783,0.261269 -0.05266,-0.06211 -0.106194,0.421031 -0.0829,-0.04474 -0.102208,0.358005 -0.02003,-0.190004 0.02783,-0.46521 -0.0808,-0.118507 -0.04716,-0.357201 -0.03564,0.381095 -0.106634,-0.121957 0.02463,0.349586 -0.05407,-0.360326 -0.100031,0.107193 -0.003,0.372898 -0.03114,-0.500489 -0.05537,0.02966 -0.03394,-0.621564 -0.04216,0.817662 -0.04096,0.09285 0.01703,-0.271052 -0.01993,-0.695076 -0.02573,-0.177658 -0.09062,-0.420595 -0.03344,0.651841 -0.0802,0.0022 -0.02183,0.524757 -0.03154,-0.623339 -0.03895,0.09471 10e-4,0.34227 -0.02903,-0.500435 -0.05126,0.01947 0.04966,-0.546416 -0.100147,0.191475 -0.127111,-0.235578 -0.0801,0.423682 -0.03965,0.246317 -0.06047,-0.05582 0.004,0.09022 -0.05577,0.385828 -0.04296,0.22971 -0.01432,-0.138973 -0.05997,0.325291 -0.05206,-0.06251 -0.02553,0.683939 -0.09852,-0.671193 -0.107856,0.06652 -0.07499,0.256083 -0.0775,-0.582344 -0.09762,-0.02217 -0.04456,0.551632 0.05787,-0.466553 -0.120752,0.04279 -0.02473,-0.477335 -0.113964,0.246739 -0.116758,-0.211437 -10e-4,0.358069 -0.122924,0.179121 -0.11926,0.07845 0.007,0.529498 -0.03844,-0.296786 -0.113723,0.192806 0.01632,-0.399317 -0.07259,0.06236 -0.05997,-0.282707 -0.138906,0.214347 -0.05327,-0.132061 -0.09372,0.205561 -0.251297,-0.159609 -0.05787,-0.01926 -0.181709,-0.03937 -0.0796,0.167962 -0.105423,-0.204652 -0.133038,0.148321 0.01773,0.427809 -0.03164,-0.490222 -0.02873,0.123045 0.03464,-0.424282 -0.06649,-0.328857 -0.05297,0.03752 0.01703,-0.315171 -0.02623,-0.398054 -0.06609,-0.250683 -0.02353,-0.26135 -0.181398,0.419805 -0.155706,-0.131804 0.01642,0.279117 -0.06709,-0.01819 -0.10233,-0.0056 -0.04646,0.434995 -0.07079,-0.222973 -0.09522,0.239982 -0.04266,-0.412936 -0.02313,0.236898 -0.084,-0.201453 0.07289,0.292322 -0.449627,-0.227146 -0.294461,0.270472 -0.03805,-0.19056 0.05947,1.120756 0.002,0.258948 0.01722,-0.296016 -0.131345,-0.833662 -0.179907,-0.248581 -0.03264,-0.34113 -0.04426,-0.209287 -0.11971,-0.124712 -0.02923,-0.584302 -0.02953,0.578962 -0.04206,-0.09599 -0.101889,-0.12148 -0.05036,0.585742 -0.117448,-0.0012 -0.03484,-0.09353 -0.03704,-0.171829 -0.101328,0.105419 -0.01592,-0.452127 -0.04045,0.321149 -0.06428,-0.200195 0.003,0.405846 -0.01102,0.613165 -0.004,0.08343 -0.05367,0.07878 -0.01723,-0.139009 -0.06949,-0.104831 -0.02073,0.26153 -0.10342,0.341983 -0.0772,0.02756 -0.04716,0.413146 0.02423,0.54702 -0.04726,0.06483 -0.09092,0.365803 -0.07499,-0.281668 -0.119991,0.143337 6.6e-4,-0.425223 -0.04336,-0.198652 -0.165649,-0.04732 -0.06709,-0.521995 -0.03534,0.509841 -0.06849,-0.146065 0.01442,0.09082 -0.346597,0.05247 -0.129253,-0.02486 0.363128,0.02995 -0.02493,0.589167 0.09462,0.584615 0.109628,-0.138577 -0.221449,-0.857379 -0.276278,-0.436714 -0.133428,-0.440263 -0.04306,0.334072 -0.09462,-0.173842 -0.05537,0.522508 -0.01312,0.182341 -0.06739,0.274266 -0.128562,-0.499005 -0.164508,0.310695 -0.178795,-0.218335 -0.108636,-0.448111 -0.151001,0.773506 -0.141228,0.08045 0.01392,-0.162996 -0.04776,0.237014 -0.0772,-0.114098 -0.02013,0.09205 -0.123726,0.370105 -0.08952,0.01355 -5.6e-4,0.350324 -0.01392,0.352848 -0.05537,0.0034 -0.01602,0.479919 -0.01582,0.371012 -0.01682,-0.02302 -0.02533,-0.135259 -0.05637,0.296324 -0.100997,-0.01382 -0.03625,0.52686 -0.114444,-0.552848 -0.138275,0.0664 -0.03084,0.372559 0.03574,-0.471298 -0.126409,0.06489 -0.01973,-0.26585 0.002,0.07385 -0.04676,-0.273831 -0.03804,0.45584 -0.09422,0.190624 -0.130974,-0.01181 -0.007,0.599601 -0.0868,-0.375484 -0.0815,0.23284 -0.01001,-0.5846 -0.04676,0.524467 -0.03824,-0.09753 -0.129093,0.168346 -0.02053,-0.05135 -0.124707,0.222004 -0.06849,-0.540942 -0.01172,-0.221424 -0.05737,-0.140112 -0.05006,-0.301202 0.03204,0.245863 -0.148377,0.0093 -0.04316,-0.421031 -0.03625,0.965202 -0.03414,0.195847 0.01111,-0.410569 -0.08932,0.0168 -0.05927,-0.400506 0.03364,-0.98345 -0.106855,0.736643 -0.09872,0.560923 -10e-4,-0.225619 -0.02713,-0.696113 -0.101107,-0.216891 -0.06138,-0.381267 -0.04296,-0.526848 -0.06077,-0.07068 -0.09562,-0.628246 -0.173078,0.500238 -0.247441,-0.05145 -3.82e-4,0.179388 -0.04986,0.02397 -0.05837,-0.0061 -0.04566,-0.161073 -0.006,0.339978 -0.05697,0.145248 0.01782,-0.234125 -0.09452,0.03041 -0.06689,-0.285116 -0.110509,0.304015 -0.076,0.44618 -0.09462,0.05048 -0.05357,0.517425 -0.04996,-0.408681 -0.06649,0.244995 0.002,0.757592 -7.8e-4,-0.596524 -0.03985,0.02035 -0.02763,-0.696701 -0.07069,0.597907 -0.05527,-0.0194 -0.04256,-0.48398 -0.02553,0.410993 -0.03855,-0.181041 -0.03905,-0.382854 0.02203,0.544588 -0.0764,0.01767 -0.227586,0.229913 -0.04696,-0.303269 -0.150509,0.174286 -0.03474,0.406859 -0.02783,-0.560722 -0.06909,0.05041 0.03064,0.46474 0.01001,-0.515003 -0.07559,-0.0036 0.04466,0.446079 -0.09152,-0.595789 -0.113403,0.05442 0.01442,0.483606 -0.06529,-0.678106 -0.082,0.02138 0.01482,-0.348761 -0.04896,-0.238376 -0.108747,-0.147249 0.01152,-0.221944 -0.0874,-0.268955 -0.09452,-0.05796 -0.03314,-0.405172 -0.04126,-0.02151 -0.134921,0.01219 -0.01682,0.491577 0.004,-0.419899 -0.03174,0.105632 0.03254,-0.386959 -0.101658,0.260615 -0.05937,-0.218435 0.02543,0.471069 -0.171406,-0.433144 -0.155456,0.08347 0.006,-0.349705 -0.09012,0.306453 -0.134339,-0.123997 -0.06839,0.310508 0.01222,-0.141276 -0.09422,0.114813 -0.0801,-0.130117 -0.141328,0.360906 -0.133038,-0.02703 0.003,0.628085 -0.04246,-0.430464 -0.05006,0.176405 -0.05306,0.421052 0.09812,-0.401706 -0.157428,-0.1647 -0.01863,0.558689 -0.1031,-0.636232 -0.07539,0.02935 -0.05957,0.424891 0.07539,-0.408052 -0.100667,0.0082 -0.08852,0.407335 -0.05206,-0.536798 -0.09602,0.131477 -0.107966,-0.543267 -0.06619,0.577735 -0.077,-0.06448 0.01121,-0.332784 -0.0808,0.269347 -0.04616,-0.156918 -0.193313,0.100372 -0.117738,0.287447 -0.162354,-0.02133 -0.123664,0.174897 -0.02383,1.439364 -0.05997,1.364124 -0.01672,-0.360046 0.04646,-1.375781 -0.103648,-1.290062 -0.03875,0.567043 -0.06418,-0.356996 -0.14294,0.155126 -0.0868,-0.22992 -0.03064,0.110485 -0.103761,-0.13829 -0.02213,0.42452 -0.03635,-0.07262 -0.144442,-0.02585 -0.04326,0.497667 -0.04696,-0.392324 -0.06849,0.1102 -5.5e-4,0.620234 -0.03775,-0.74021 -0.03434,0.055 0.01371,0.729014 -0.01592,-0.596181 -0.03955,-0.0098 0.01152,-0.379132 -0.04876,-0.341866 -0.09792,0.02764 -0.03224,-0.482579 -0.01192,-0.153321 -0.05537,0.137627 -0.0854,-0.346464 0.417497,-0.514394 0.184183,-0.08192 -0.284298,-0.429984 -0.327012,-0.01347 -0.315448,-0.358669 -0.136982,0.388874 -0.10387,-0.07325 -0.133798,0.196841 -0.186535,-0.15935 -0.01181,0.387389 -0.07489,-0.05944 -0.134779,0.159715 -0.146184,-0.311053 -0.196226,0.122237 -0.06719,-0.424458 0.03484,0.03186 0.153032,0.105636 0.04526,0.155625 -0.433166,-0.45041 -0.276087,0.06088 -0.04466,-0.105347 -0.02673,0.06916 -0.07139,0.02876 -0.115086,-0.0489 -0.08791,-0.240231 -0.131666,-0.36396 -0.01682,0.517233 -0.09912,-0.234731 -0.0809,0.244948 -0.05036,-0.199205 -0.02963,-0.446584 -0.04596,-0.07315 -0.01152,-0.04578 -0.02473,-0.291243 -0.0831,0.08742 -0.164687,-0.331683 -0.09482,0.457102 -0.16713,-0.0212 -0.145913,0.05053 -0.02243,-0.389584 -0.129013,-0.03607 -0.01582,0.268158 -0.04035,-0.354866 -0.06057,0.08957 -0.03134,-0.205993 -0.0812,-0.453914 -0.07219,-0.09258 0.03044,-0.467212 -0.09492,0.227714 -0.06759,-0.267624 -0.003,0.121181 -0.01723,0.663292 -0.02553,0.25275 -0.01131,0.219213 -0.0811,-0.241942 -0.04666,0.132473 -0.077,-0.493319 -0.185223,0.527109 -0.16628,-0.08327 -0.01532,-0.134727 -0.07279,0.08564 -0.147375,-0.03784 -0.004,0.357316 -0.003,0.139252 -0.09412,-0.03756 -0.06569,0.533433 -0.06879,-0.207211 -0.0848,0.124254 -0.002,-0.596703 -0.03504,0.435638 -0.05797,-0.08178 0.004,0.498209 -0.111481,-0.26191 -0.149629,-0.02758 -0.03915,-0.389282 -0.06117,0.674925 -0.06449,0.03427 10e-4,-0.157333 -0.06759,0.304499 -0.04966,-0.120877 -0.0756,0.341587 -0.195287,0.126027 -0.225595,0.227417 -0.03164,-0.03564 -0.04636,0.07912 -0.0788,-0.212321 -0.104311,0.291708 -0.127661,-0.39979 -0.126389,0.150384 -0.09852,-0.346924 -0.09322,0.374335 -0.139596,-0.07611 -0.05427,0.239907 0.01102,0.09614 -0.10003,-0.08737 -0.01943,-0.564314 -0.001,0.536705 -0.04025,0.112178 -0.03114,-0.02487 -0.01502,-0.165389 -0.05277,-0.09132 -0.06619,0.161852 -0.008,-0.644994 -0.05146,0.01673 -0.01231,-0.451759 -0.02973,0.311069 -0.05477,-0.153056 0.01632,0.215518 -0.06709,0.53449 -0.0781,0.133768 -0.03514,0.192134 -0.02423,-0.34367 -0.04436,0.0392 -0.03204,0.388985 -0.03554,-0.418527 -0.04436,0.09373 -0.03274,0.241043 -0.02313,-0.996102 -0.02854,-0.241458 -0.004,0.699712 -0.01562,-0.09114 -0.05507,0.293364 -0.04286,-0.672825 -0.09562,0.511354 -0.08842,-0.123074 0.002,-0.555818 -0.02633,0.512543 -0.03254,-0.0532 -0.02323,-0.06207 -0.01873,0.314012 -0.04506,-0.01458 -0.1031,0.02506 -0.105874,0.299249 -0.141869,-0.03409 -0.01001,0.135188 -0.01151,-0.08654 -0.01683,0.229194 -0.01833,-0.174766 -0.04686,-0.369633 -0.107185,-0.07714 -0.02243,-0.432443 -0.01131,-0.138963 -0.0833,-0.02707 -0.06388,-0.448504 -0.05757,-0.18801 -0.09892,0.07972 -0.04066,-0.331233 -0.02023,-0.543267 -0.02994,-0.06265 0.009,0.159299 -0.123485,-0.502052 -0.161042,0.07744 -0.06248,-0.433331 -0.03684,0.265854 -0.108967,-0.213717 -0.03464,0.496125 -0.07579,-0.322453 -0.07379,0.127303 -0.01272,-0.560905 -0.02994,0.424114 -0.05156,-0.176917 -0.02503,0.273828 -0.03054,0.504051 -0.04256,0.06577 -0.04896,-0.394678 -0.130534,1.075625 -0.105973,0.261121 -0.10255,-0.541204 -0.02853,1.276852 -0.04115,0.242975 0.05166,-0.271995 -0.116367,-0.75747 -0.126089,-0.195204 -0.115325,0.831763 0.144682,1.678525 -0.287012,2.497826 -0.149798,-0.383009 0.04636,-1.602333 -0.146434,-1.349461 -0.05116,-0.29752 -0.006,-1.302734 -0.03955,-1.105782 -0.009,0.104371 -10e-4,-0.49486 -0.06157,-0.342612 -0.004,-0.157849 -0.01903,-0.506637 -0.01702,-0.117329 -0.03244,-0.219403 -0.136461,0.358448 -0.09923,-0.124546 -8.51e-4,-0.548469 -0.01702,0.568752 -0.02833,-0.105697 -0.01171,0.263659 -0.003,0.894498 -0.01382,0.292804 -0.01562,-0.281704 -0.01262,0.666025 -0.01432,0.08843 -0.02693,-0.560718 -0.04906,0.701519 -0.05337,0.08958 0.008,-0.123488 -0.002,-0.633754 -0.04686,-0.198011 -0.02243,-0.513509 -0.107305,0.433407 -0.0802,-0.19088 -0.01001,-0.373168 -0.008,-1.165731 -0.01402,-1.275681 l -0.009,2.457996 c -0.003,-1.020069 -0.003,-2.040143 -0.01321,-3.060206 0.01512,1.302494 -0.02883,2.604919 -0.06057,3.907308 -0.02843,-0.430776 -0.007,-1.210394 -0.03054,-0.787296 -0.003,-0.338665 -0.009,-0.95887 -0.009,-0.260046 0.001,0.304869 -0.01232,1.49364 -0.01652,0.616855 -0.003,-0.590209 -0.002,-1.180422 -0.008,-1.770627 -0.007,0.63297 0.01111,1.789264 -0.02874,2.095849 0,-0.514691 -0.03084,-0.03663 -0.02233,-0.219948 l -0.003,-1.753649 c -0.003,0.573891 1.3e-4,1.753402 -0.008,1.945286 -0.006,-0.172243 -0.01742,0.110206 -0.01672,-0.234473 0.003,-0.583627 -0.05387,0.729393 -0.04986,-0.02083 -0.003,-0.362867 -0.003,-1.159035 -0.006,-0.344051 -0.008,0.302191 -0.002,-0.708203 -0.006,-0.916495 -0.001,-0.288431 -0.001,-1.294582 -0.002,-1.097654 -3.2e-4,0.378224 3.6e-4,0.523422 -0.01001,0.637697 -0.01001,0.565526 0.02123,1.131517 -0.01913,1.696746 -0.02333,-0.769891 -0.003,-1.539867 -0.01352,-2.309789 -0.006,0.916538 0.006,1.833098 -0.01331,2.749617 0.003,-0.354068 -0.003,-0.715442 -0.01352,-0.659203 -10e-4,-0.586074 -0.002,-1.172147 -0.004,-1.758219 -0.002,0.780273 -10e-4,1.560548 -0.006,2.340819 -0.01001,-1.147934 -0.003,-2.295877 -0.008,-3.443814 -10e-4,0.333649 -10e-4,1.314973 -0.006,1.213088 -0.008,-0.796611 -0.02243,0.89051 -0.03284,0.04338 -0.01312,-0.363305 0,1.509386 -0.03995,0.629585 -0.01662,0.673332 -0.02783,-0.552705 -0.04646,0.05333 -0.03324,0.468845 0.05667,1.380462 -0.0833,1.462271 -0.02693,-0.329425 -0.007,-1.250524 -0.02253,-1.192591 -0.004,0.796647 -0.01111,-0.668957 -0.02803,0.02134 0.01672,0.133581 -0.05307,-0.251646 -0.04886,0.05598 -0.004,0.380848 0.003,1.130479 -0.05116,0.567451 0.01742,0.671672 -0.10255,-0.447191 -0.100998,0.223595 -0.01562,0.373866 -0.104432,0.592634 -0.07219,0.05786 -0.01001,-0.167271 0.006,0.360545 -0.05507,-0.06647 -0.03154,-0.22109 -0.02834,-0.367714 -0.03294,-0.04746 -0.102439,-0.260753 -0.08912,0.564011 -0.105423,-0.07333 -0.08832,0.168406 -0.02233,-0.518104 -0.07399,0.02703 -0.02233,-0.264571 -0.02823,0.373549 -0.05136,-0.05015 -0.02723,0.357056 -0.01652,0.493492 -0.06799,0.04319 -0.03584,0.415939 -0.002,1.173344 -0.308318,1.177844 -0.03214,-0.459245 -0.01662,-1.508966 -0.02553,-1.574852 0.002,0.309929 -0.01131,0.614218 -0.01001,0.125778 -0.004,-0.681253 -0.008,1.021928 -0.01873,0.141193 -0.009,-0.383055 -0.01973,-1.303822 -0.02043,-1.359962 -0.001,0.444992 -7.5e-4,1.308564 -0.004,1.51332 6e-5,-0.613101 -0.002,-0.89472 -0.01612,-0.695423 0.007,-0.255628 -0.006,-1.072125 -0.07129,-0.369478 -0.07259,0.584565 -0.01402,1.170095 -0.04676,1.755016 0.0827,-0.357275 -0.129652,-0.218045 -0.233193,-0.193017 -0.09562,-0.208362 -0.02973,-0.513663 -0.0771,-0.506644 -0.01552,-0.304361 -10e-4,-1.063756 -0.01652,-1.102118 -0.002,0.351373 -6.71e-4,1.092713 -0.01813,0.324363 0.01462,0.341099 -0.01863,0.934928 -0.02863,0.220097 -0.006,-0.867026 -0.03604,1.232433 -0.02833,0.132829 -0.02263,-0.856949 -0.03424,0.53105 -0.05266,0.816214 -0.01742,0.156782 -0.03154,1.007642 -0.04756,0.467968 0.008,0.49223 -0.06589,0.01519 -0.04736,0.09971 0.001,0.459031 -0.02904,0.318414 -0.02993,0.445084 -0.02763,0.160269 -0.01512,-0.401855 -0.06569,-0.29754 -0.02043,-0.227688 -0.01001,0.406065 -0.06218,-0.006 -0.02233,0.643758 -0.002,-0.914177 -0.02133,-0.348571 -5.81e-4,-0.295118 -0.006,-0.987014 -0.008,-0.267247 0.003,0.326727 -0.007,1.203972 -0.01923,0.381556 -3.31e-4,-0.702932 -0.02183,0.675609 -0.02994,-0.11185 -0.008,-0.75068 -0.01272,0.650434 -0.03674,0.01732 -0.01001,-0.546502 -0.007,0.27623 -0.01512,-0.140215 -0.01001,0.592347 -0.006,0.116968 -0.03244,-0.208915 0.007,0.231441 -0.01001,0.899598 -0.03034,0.32153 -0.01572,0.258232 -0.01362,0.878229 -0.01512,0.294538 -0.01512,-0.366493 0.02723,-1.164368 -0.05757,-1.285396 -0.05156,0.313542 0.01772,1.216739 -0.0796,1.113488 -0.07489,-0.235059 -0.08611,-0.879525 -0.07549,-0.294944 -0.127051,-0.991531 -0.004,-1.989997 -0.06509,-2.984176 -0.02093,0.525435 -0.05086,-0.436665 -0.04185,0.211171 -0.006,0.278971 -0.002,1.230777 -0.008,1.058076 -0.003,-0.471707 0.003,-1.203564 -0.02143,-0.694338 0.002,-0.216818 -0.003,-0.958048 -0.01001,-0.341324 -0.01452,-0.517815 -0.01772,0.667082 -0.01843,0.835556 0.001,0.307941 -0.004,0.932189 -0.01112,0.288439 -0.01762,0.388632 -0.004,1.38941 -0.02763,1.439524 0.008,-0.541732 -0.01983,0.968165 -0.03755,0.160201 -0.02563,-0.186542 -0.02513,0.02321 -0.02723,-0.324194 -0.01612,-0.376504 0.01121,0.903393 -0.03314,0.203131 -0.01252,-0.33429 -0.007,-1.092189 -0.01151,-1.699779 9.3e-4,0.462031 -0.006,0.744351 -0.009,0.422054 -0.001,0.373268 -0.002,1.283768 -0.003,1.331335 -0.002,-0.410151 -0.002,-1.458593 -0.009,-1.498471 -0.006,0.74104 -0.007,-0.69674 -0.008,-0.91252 -3.91e-4,-0.262117 -0.004,-1.007328 -0.004,-0.344657 -0.002,1.073042 -0.003,2.146087 -0.008,3.219129 -0.01823,-0.363 0.03274,-0.964211 -0.03424,-0.252036 -0.03915,-0.827166 0.01272,-1.654854 -0.03795,-2.482092 -0.004,0.355621 -0.008,1.495198 -0.01152,0.563197 -4.6e-4,-0.321775 -0.003,-1.22537 -0.01121,-0.422873 -0.02523,0.405876 -0.02243,-0.521919 -0.03154,0.09499 -0.007,0.381931 -0.01582,-0.979296 -0.01813,-0.203796 -0.009,0.606066 -0.003,0.06801 -0.02193,-0.266194 -0.03054,0.376178 0.03885,0.09611 -0.05226,0.0923 -0.001,0.470761 -0.002,1.642373 -0.003,1.657159 -0.002,-0.594338 -3.9e-4,-1.694031 -0.007,-1.973815 -0.004,0.350834 -0.004,1.383203 -0.008,1.274225 -0.003,-0.407876 0.003,-1.213223 -0.01172,-0.683807 -0.03945,-0.420181 -0.007,0.921683 -0.03815,0.172976 -0.002,-0.420052 -0.008,0.626114 -0.008,-0.06391 -1.21e-4,-0.355606 -0.004,-1.306503 -0.004,-0.406384 -0.002,0.344625 -0.002,1.414263 -0.003,0.558378 7.31e-4,-0.423491 -0.01813,-0.584122 -0.01723,-0.04256 0.01913,0.557871 -0.03905,0.366835 -0.03134,-0.06143 -0.003,-0.197841 0.004,-0.493717 -0.008,-0.31466 -0.002,-0.25197 -0.008,-0.841397 -0.009,-0.24136 -0.003,0.353281 -0.007,1.19438 -0.01262,1.255254 -10e-4,-0.368957 -0.002,-1.262625 -0.004,-1.314194 -0.002,0.405023 -3.51e-4,1.413602 -0.006,1.457102 -0.009,-0.352242 -0.06519,-1.244179 -0.05287,-0.414357 -5e-5,0.357521 -0.007,0.713224 -0.006,0.155054 -8.9e-4,-0.292316 -10e-4,-1.453578 -0.008,-0.593218 -0.006,0.327688 -0.01472,1.568079 -0.01442,0.623147 -0.001,-0.298999 10e-5,-1.156244 -0.009,-1.127076 0.002,0.558949 -0.007,1.597543 -0.01512,1.878918 -0.002,-0.295829 -0.003,-1.185958 -0.008,-1.12284 -0.01412,0.87699 -0.01001,-1.334506 -0.01572,-0.287541 0.003,0.318987 -0.01382,1.133432 -0.01813,0.376245 -0.01462,0.299642 -0.006,-1.033423 -0.01261,-0.292077 0.01532,0.330444 -0.02093,1.229739 -0.01823,0.385591 -10e-4,-0.375207 -0.01001,0.403995 -0.008,-0.140311 -0.002,-0.502368 -0.009,0.457783 -0.01302,-0.17912 -0.007,-0.498258 -0.02383,-0.36387 -0.01893,0.03792 -0.01141,0.697923 -0.01201,-0.724642 -0.02433,-0.137386 -0.006,-0.410479 -0.02473,-0.66334 -0.01913,-0.107481 -3e-5,0.259207 -0.003,0.941135 -0.004,0.312546 -1.6e-4,-0.201856 -0.002,-0.870384 -0.004,-0.301878 10e-4,0.265213 -0.006,0.732701 -0.006,0.212806 -0.01442,-0.741946 -0.01322,1.043369 -0.01822,0.217971 -0.003,-0.263807 -0.001,-1.235844 -0.009,-1.03231 -0.007,0.325986 0.007,1.406931 -0.02203,0.544353 -0.01101,0.417981 0.002,1.251614 -0.01202,1.387848 -0.02663,-0.296207 -0.01001,-0.226626 -0.04096,-0.06688 -0.02393,-0.517924 -0.05877,0.678131 -0.05998,-0.05176 -0.0817,0.02164 0.01472,1.05812 -0.0755,1.329722 -0.09532,-0.60215 -0.03945,-1.205808 -0.07329,-1.808549 -0.01192,0.265755 0.003,1.143573 -0.01963,1.001244 -0.01201,-0.620546 0.04286,-1.241875 -0.05136,-1.861704 -0.152932,0.481437 -0.07249,-0.103486 -0.107525,-0.487047 -0.02313,0.254811 -0.01242,0.93602 -0.01863,0.288493 -0.008,-0.407453 0.01442,-1.197229 -0.01732,-1.369902 -0.01973,0.355219 -0.006,1.327273 -0.01281,1.319824 -0.001,-0.444453 -0.003,-1.316339 -0.004,-1.493433 0.02403,0.319753 -0.03164,1.467942 -0.06459,0.701107 -0.004,0.423817 -0.01312,-0.413905 -0.02093,0.09825 0.01983,0.409796 -0.06258,-0.134582 -0.05737,0.341162 -0.05146,0.116391 -0.01652,1.514144 -0.03725,1.408749 -0.02343,0.102069 -0.01913,-0.355162 -0.02683,0.0636 -0.007,-0.43838 -0.01793,0.425662 -0.02363,-0.12678 -0.02743,-0.432716 -0.01602,0.749274 -0.01822,-0.0032 -0.02663,-0.576611 -0.02213,0.459315 -0.03514,-0.229247 -0.008,0.29029 -0.003,1.164246 -0.009,0.423741 -0.007,-0.303491 -0.01131,-1.253914 -0.01723,-1.123194 0.01242,0.284852 -0.01512,1.376071 -0.01923,0.557803 10e-4,-0.295247 -0.01201,-0.693397 -0.01252,-0.134853 1.1e-4,0.267646 -0.01121,0.82095 -0.01001,0.239015 0.01733,-0.557872 -0.04986,-0.0077 -0.04166,0.14616 -0.01001,-0.391843 -0.004,0.909861 -0.01733,0.17916 0.006,-0.209103 -0.009,-0.49718 -0.02203,-0.139919 -10e-4,-0.387977 -0.02033,-0.460357 -0.01933,-0.02319 -0.02253,0.606589 -0.02063,-0.879341 -0.02653,-0.115552 10e-4,0.376334 -0.006,0.879692 -0.007,0.18079 -0.006,-0.589394 0.004,-1.178871 -0.01873,-1.7682 -0.01913,0.600717 -0.007,1.823446 -0.01412,2.032328 -6.5e-4,-0.485799 -0.003,-1.52437 -0.004,-1.661058 -0.006,0.545701 9.42e-4,0.186402 -0.01713,0.116921 -0.003,0.31236 -0.007,0.621199 -0.009,0.129258 -0.002,0.303541 -0.007,1.167293 -0.007,0.397352 0.002,-0.422255 -0.02053,-0.713339 -0.01703,-0.124409 -0.004,0.557761 -0.02733,1.115477 -0.02503,1.673253 0.01793,-0.321023 -0.03204,-0.662916 -0.02313,-0.143059 -0.01472,-0.250166 0.008,-1.471133 -0.02193,-0.665866 -0.02923,0.214038 -0.03434,1.085043 -0.04896,0.432369 -0.02473,0.488206 8.11e-4,-1.49263 -0.04196,-0.483937 -0.01332,-0.856334 -0.02283,0.799784 -0.02903,0.163405 -0.01602,0.413317 -0.03404,-0.60162 -0.03915,0.04639 -0.06949,-0.707474 -0.03815,1.33702 -0.05086,0.370169 0.004,-0.263441 -0.009,-1.219395 -0.009,-0.495269 6.71e-4,0.251978 -0.003,0.840035 -0.004,0.280827 0.003,-0.250464 -0.02723,-1.056692 -0.02343,-0.391933 -3.41e-4,0.440522 -0.03104,-1.011055 -0.05307,-0.311921 -0.02203,0.427565 -0.01101,1.508487 -0.01913,1.514179 -0.01672,-0.689015 -0.04025,-0.0843 -0.03624,0.232563 0.008,-0.215717 -0.05397,0.824804 -0.0833,0.201257 -0.01201,-0.708181 0.008,-1.417163 -0.04326,-2.124731 0.003,0.127958 -0.05036,-0.23354 -0.03995,0.134087 0.003,0.226202 -0.04916,0.58253 -0.0775,0.124416 -0.006,0.359838 -0.03014,0.05699 -0.02573,0.505825 -10e-4,0.425346 -0.03584,-0.651528 -0.04676,-0.01476 -0.002,0.332984 0.004,0.858537 -0.004,0.196221 -0.007,-0.182751 -0.01322,0.976546 -0.01552,0.30481 -0.002,-0.341058 4.72e-4,-0.723161 -0.01873,-0.151306 -0.06358,0.269846 -0.01853,-1.057135 -0.06007,-0.430376 -0.002,-0.272878 -0.103861,-0.642358 -0.218875,-0.392444 -0.09982,-0.354649 -0.01762,-1.368914 -0.04756,-1.299051 0.001,0.288595 -0.006,1.291498 -0.008,0.512177 0.002,-0.307389 -0.001,-1.295865 -0.02523,-0.801134 -1.3e-4,-0.287344 -0.01793,0.895594 -0.02233,0.134719 0.003,-0.28028 -0.01402,-0.782076 -0.01001,-0.216693 0.003,0.333419 -0.01352,0.631064 -0.009,0.129732 -0.007,-1.052254 -0.003,1.065773 -0.009,0.678177 0.003,-0.34097 -0.009,-1.521487 -0.01001,-0.603102 -0.001,0.304101 -0.002,1.112676 -0.003,1.124453 -0.001,-0.386831 -6.91e-4,-1.334517 -0.006,-1.383191 -0.002,0.401929 2.9e-4,1.546056 -0.009,1.467076 10e-4,-0.313086 -0.003,-1.52861 -0.01001,-0.647884 -0.002,0.245154 -5.61e-4,1.133828 -0.01001,0.939749 -0.004,-0.681118 -0.004,-1.362243 -0.01282,-2.043355 -0.01301,0.734721 -0.006,1.46947 -0.01131,2.2042 -10e-4,-0.589575 -0.002,-1.873704 -0.004,-2.021797 -0.001,0.70965 -0.002,1.419303 -0.006,2.128951 -0.003,-0.585377 0.003,-1.861443 -0.01101,-2.007736 -4.41e-4,0.311814 -0.008,0.547867 -0.006,0.106431 0.006,-0.272658 -0.01893,-0.948038 -0.01411,-0.302972 -3.61e-4,0.335525 -0.003,0.946805 -8.41e-4,0.283579 -0.07289,0.110579 -0.03895,0.579231 -0.05206,0.09185 -0.01001,-0.65751 -0.139125,0.771917 -0.110069,1.075361 -0.01101,-0.313346 -0.004,0.394611 -0.01101,-0.102455 0.009,0.326887 -0.03044,0.631328 -0.02403,0.124166 2.6e-4,-0.330438 -0.003,-1.332368 -0.007,-0.485465 -10e-4,0.296098 -0.004,1.699464 -0.007,0.791888 0.003,-0.286566 -0.008,-1.583887 -0.01622,-0.695978 -0.02193,0.215036 -0.01602,-1.350342 -0.01913,-0.375239 -0.03404,0.228037 -0.01442,0.825211 -0.03064,0.24512 -0.01342,-0.435266 0.004,0.921221 -0.01482,0.446851 -0.008,0.58232 -0.06929,1.530879 -0.06498,1.897321 -0.03214,-0.939177 0.002,0.783559 -0.123896,0.278412 -0.03735,0.166321 -0.05417,0.0894 -0.07159,0.378853 -10e-4,-0.37052 -0.01131,-0.265847 -0.02934,-0.264559 -0.01602,-0.696349 -0.003,-1.901973 -0.01111,-2.279616 -10e-4,0.414886 -10e-4,1.399709 -0.004,1.489321 -0.001,-0.501031 -0.002,-1.002063 -0.004,-1.503094 0.01002,0.252202 -0.01913,0.89125 -0.01832,0.296495 -0.02083,0.198155 -0.02293,-0.07932 -0.02793,0.290021 -0.05587,-0.04893 -0.05266,0.822022 -0.07429,1.138379 -0.06959,0.405915 0.09452,0.590844 -0.132738,0.609985 0.02473,-0.379917 -0.03895,-1.113095 -0.04936,-0.320939 -0.01392,0.752385 -0.02293,-1.258022 -0.03004,-0.31231 -0.006,-0.342973 -0.03204,-1.693562 -0.08972,-0.729484 0.003,0.401152 -10e-4,0.893503 -0.04146,0.558421 -0.002,0.414905 -0.07009,0.176119 -0.05266,0.611903 -0.01392,0.334953 0.01602,1.188373 -0.09652,0.42022 -0.275147,-0.07092 -0.04156,-0.689003 -0.16623,-0.340584 -0.01733,-0.342878 -0.02643,0.428446 -0.03084,-0.154372 -0.01552,-0.559415 -10e-4,-1.552575 -0.02033,-1.850686 -0.006,0.329869 0.002,1.22767 -0.01001,1.186504 -0.01001,-0.532264 -0.01282,0.310084 -0.01943,-0.264354 -0.01372,-0.519404 -0.01172,-1.599728 -0.01692,-1.767554 0.003,0.376385 -0.01782,0.4945 -0.01192,0.05429 -10e-4,-0.573928 -0.009,-0.413991 -0.007,0.05935 10e-4,0.337592 0.01171,1.403095 -0.05697,0.651014 -0.01552,0.264811 -0.02954,0.612875 -0.05997,0.592658 -0.05557,0.383691 0.007,0.810744 -0.07139,0.942435 -0.01462,0.223719 -0.003,-0.17236 -0.03094,0.15795 -0.139825,0.770371 -0.09932,-0.469634 -0.123405,-0.755856 2.1e-4,-0.585571 -0.002,1.007511 -0.01442,0.16242 0.01192,-0.64014 -0.04676,-1.191026 -0.05016,-0.639647 0.006,-0.409226 -0.05367,-0.424549 -0.03715,-0.0087 0.01291,0.337396 -0.03224,-0.807285 -0.03514,-0.06567 0.002,0.289761 -0.02303,-0.334783 -0.05136,0.14351 -0.06889,-0.757742 -0.05877,1.101501 -0.153233,0.476443 0.05367,0.664195 -0.179176,0.234233 -0.149018,0.229902 0.009,0.273674 -0.01702,1.559018 -0.05497,0.677128 -0.009,-0.361321 0.01001,-1.378378 -0.01812,-1.309707 0.002,0.252232 -0.01723,0.783699 -0.01913,0.230995 0.02093,-0.413901 -0.05687,-0.594647 -0.05106,-0.08165 -0.03695,-0.288011 -0.03624,-0.909761 -0.05657,-0.236989 -5.8e-4,0.133059 -0.03013,0.683074 -0.02893,0.233323 -0.06268,0.519485 -0.02553,1.54885 -0.131176,1.370846 -0.009,0.380732 -0.05767,-0.145622 -0.07529,-0.04587 -0.01111,-0.272881 0.009,-0.464266 -0.01602,-0.0766 -0.03795,-1.263083 -0.007,-2.526814 -0.02373,-3.79015 0.01001,0.236587 -0.01412,0.728916 -0.01202,0.218222 10e-4,0.435533 -0.01793,0.587884 -0.007,0.06815 0.01141,-0.343706 -0.04065,-0.876286 -0.03094,-0.217408 0.002,0.380753 -0.004,0.659751 -0.003,0.124683 -3.5e-4,-0.42069 -0.006,-0.539501 -0.004,-0.04951 -7.22e-4,0.600535 -0.01201,-0.545675 -0.009,0.206916 -10e-4,0.6268 2.3e-4,1.761634 -0.009,2.073624 -0.01141,-0.974243 0.02393,-1.948624 -0.02533,-2.922753 -0.03194,0.932749 -0.01943,1.865621 -0.02713,2.79843 -0.001,-0.34274 -0.001,-1.187106 -0.004,-1.225792 -10e-4,0.398333 -10e-4,1.273667 -0.004,1.374526 -10e-4,-0.923935 -0.01161,-1.847863 -0.01311,-2.771797 -0.02313,0.446785 -0.002,1.344577 -0.01292,1.968877 -0.01382,-0.37177 10e-4,-1.399089 -0.02123,-2.021713 0.06879,0.246068 -0.118238,0.524439 -0.07199,0.09195 -0.03004,0.339282 -0.04736,0.935963 -0.05096,0.259269 -0.04306,-0.583399 -0.131255,0.45597 -0.107195,0.82673 0.009,0.278083 -0.01232,1.054518 -0.01582,0.362653 -0.01903,-0.402111 -0.009,1.120536 -0.02743,0.236964 0.009,0.34396 -0.03264,1.065973 -0.05377,0.460589 -0.002,-0.312216 -0.008,-0.684384 -0.01001,-0.158488 0.006,0.38308 -0.01281,0.615233 -0.01001,0.104857 0.004,-0.815126 -0.02243,0.24611 -0.04606,0.417042 -0.03094,-0.757599 -0.07319,1.068726 -0.0769,0.218918 0.007,-0.302364 -0.01281,-1.112896 -0.01412,-0.387036 0.01332,0.312678 -0.02884,0.852261 -0.07169,0.76392 -0.04426,0.328159 -0.03344,-0.802033 -0.04276,-0.06524 -0.01923,0.440209 0.03765,1.374272 -0.09502,1.525105 10e-6,-0.358192 -0.01732,-0.74825 -0.03374,-0.159773 -0.05066,0.453293 -0.0815,-0.60004 -0.08421,0.0036 0.008,0.317372 -0.0784,1.253874 -0.07549,0.442353 -0.01272,-0.454249 -0.01712,0.515436 -0.03575,-0.06985 -0.04266,-1.357521 -0.02013,-2.715199 -0.03013,-4.072793 -0.009,0.68833 -0.004,1.870692 -0.009,2.252157 -0.003,-0.950139 4.3e-4,-1.900283 -0.009,-2.850418 -0.004,0.118762 0.007,0.859255 -0.01472,0.406527 -0.001,0.345168 -0.009,0.736154 -0.01102,0.180389 -0.009,-0.621135 -0.01411,1.271196 -0.01362,0.194048 0.006,-0.297646 -0.01762,-0.776288 -0.01863,-0.192459 10e-4,0.358693 -0.007,0.744949 -0.004,0.170432 -0.009,-0.899962 -0.01873,0.527573 -0.02043,0.800621 -0.004,0.281716 -0.006,1.270044 -0.006,1.081985 -10e-4,-0.713213 -0.002,-1.426426 -0.004,-2.139639 -0.001,0.585194 -0.001,1.615492 -0.004,1.92788 -0.002,-0.836755 -0.006,-1.67351 -0.009,-2.510265 -0.003,0.114978 -0.009,0.646898 -0.01832,0.223599 7.2e-4,0.254629 -0.006,1.186952 -0.007,0.473467 0.002,-0.239947 -0.004,-0.784102 -0.006,-0.246354 5.32e-4,0.260472 -0.007,0.956471 -0.01111,0.320801 4.1e-4,-0.458668 -0.02303,-0.526493 -0.01442,-0.03119 -3.81e-4,0.662831 -0.002,1.83046 -0.008,2.180057 -0.003,-0.969627 10e-4,-1.939259 -0.009,-2.908882 -0.001,0.24441 -0.001,1.160725 -0.004,0.961343 -9.22e-4,-0.532444 -0.006,-0.210108 -0.008,0.110515 0.006,-0.163417 -0.01372,-0.53395 -0.02633,-0.155082 -0.09973,-0.684622 -0.03945,0.525086 -0.06358,0.831191 1e-5,0.368298 -0.009,0.680885 -0.01212,0.148165 0.008,-0.297527 -0.02443,-0.890433 -0.02353,-0.23155 0.007,0.365106 -0.01452,0.846468 -0.03975,0.176806 -0.02123,-0.681713 -0.02183,0.862101 -0.03274,0.0088 -0.07429,0.90315 5.3e-4,1.820213 -0.04156,2.728556 -0.08541,-0.636555 -0.08581,-1.274316 -0.0805,-1.912388 -0.01883,0.427024 0.04095,1.48712 -0.05006,1.531453 -0.03945,-0.260449 -0.01863,0.329363 -0.03204,-0.08472 -0.04106,0.611498 -0.05957,-1.040885 -0.05367,-0.106635 -0.03204,0.89218 -0.06308,-0.453054 -0.04976,-0.820754 0.003,-0.273049 -0.01392,-1.253212 -0.01442,-0.500149 -0.01732,0.430386 -0.006,-1.137493 -0.02023,-0.252173 -0.003,-0.2798 -0.03424,-0.603856 -0.03014,-0.02327 -7.41e-4,0.33448 -0.01001,0.556408 -0.008,0.06133 -0.002,-0.501376 -0.006,0.324298 -0.006,-0.09989 0.008,-0.257723 -0.04005,-0.664289 -0.03234,-0.185258 -0.03684,0.193834 -0.01612,-0.931155 -0.02713,-0.203216 0.002,0.82213 -0.02683,-1.002879 -0.03164,-0.06721 0.01172,0.299662 -0.04135,0.307543 -0.03885,-0.0062 -0.007,0.603838 -0.01512,-0.685472 -0.01793,-0.03286 -0.003,-0.586739 -0.02633,0.01508 -0.07389,-0.177913 -0.02003,-0.283124 -0.213818,0.269681 -0.169964,-0.170852 -0.02783,0.451895 -0.0828,0.224594 -0.120461,0.193328 -0.01102,-0.67404 -0.0806,0.458406 -0.108076,-0.05676 -0.006,0.36338 -0.006,-0.295015 -0.05297,0.05967 -0.06899,-0.09017 -0.03104,0.713129 -0.04176,0.996487 -0.01732,0.2856 -0.01351,-0.509625 -0.02963,0.06666 -0.009,0.391447 -0.02503,-0.66204 -0.02263,-0.02304 -0.007,0.387646 0.003,0.521266 -0.03584,0.02905 -0.01482,0.280275 -0.01131,-0.197714 -0.01963,0.210223 -0.04436,0.616933 -0.04095,-0.803243 -0.04426,-0.0069 -0.07239,0.69228 0.05637,1.787477 -0.113272,2.207015 -0.06108,-0.420726 -0.03364,0.632253 -0.116071,-1.416574 -0.06521,-1.256238 -0.0538,-2.438229 -0.05599,-1.685764 -0.02663,0.576611 -0.02213,-0.459315 -0.03514,0.229246 -0.008,-0.29029 -0.003,-1.164245 -0.009,-0.42374 -0.007,0.30349 -0.01131,1.253914 -0.01723,1.123194 0.01242,-0.284852 -0.01512,-1.376071 -0.01923,-0.557803 10e-4,0.295247 -0.01202,0.693397 -0.01252,0.134853 1.1e-4,-0.267646 -0.01121,-0.82095 -0.01001,-0.239016 0.01732,0.557873 -0.04986,0.0077 -0.04166,-0.146159 -0.01001,0.391843 -0.004,-0.909861 -0.01732,-0.17916 0.006,0.209103 -0.009,0.49718 -0.02203,0.139919 -10e-4,0.387976 -0.02033,0.460356 -0.01933,0.02319 -0.02253,-0.606588 -0.02063,0.879341 -0.02653,0.115553 10e-4,-0.376334 -0.006,-0.879693 -0.007,-0.180791 -0.006,0.589395 0.004,1.17887 -0.01873,1.7682 -0.01913,-0.600716 -0.007,-1.823445 -0.01412,-2.032327 -6.51e-4,0.485799 -0.003,1.52437 -0.004,1.661058 -0.006,-0.545701 9.41e-4,-0.186402 -0.01713,-0.116921 -0.003,-0.312361 -0.007,-0.6212 -0.009,-0.129258 -0.002,-0.303541 -0.007,-1.167293 -0.007,-0.397352 0.002,0.422255 -0.02053,0.713339 -0.01703,0.124409 -0.004,-0.557761 -0.02733,-1.115477 -0.02503,-1.673253 0.01792,0.321023 -0.03204,0.662916 -0.02313,0.143058 -0.01472,0.250166 0.008,1.471134 -0.02193,0.665867 -0.02924,-0.214038 -0.03434,-1.085043 -0.04896,-0.432369 -0.02473,-0.488207 8.12e-4,1.49263 -0.04195,0.483936 -0.01332,0.856334 -0.02283,-0.799783 -0.02904,-0.163404 -0.01602,-0.413317 -0.03404,0.601619 -0.03915,-0.0464 -0.06949,0.707475 -0.03815,-1.337019 -0.05086,-0.370168 0.004,0.263441 -0.009,1.219394 -0.009,0.495269 6.72e-4,-0.25198 -0.003,-0.840035 -0.004,-0.280827 0.003,0.250464 -0.02723,1.056692 -0.02343,0.391933 -3.4e-4,-0.440522 -0.03104,1.011055 -0.05307,0.311921 -0.02203,-0.427566 -0.01102,-1.508487 -0.01913,-1.514179 -0.01672,0.689015 -0.04025,0.0843 -0.03624,-0.232564 0.008,0.215718 -0.05397,-0.824803 -0.0833,-0.201257 -0.01201,0.70818 0.008,1.417164 -0.04326,2.124731 0.003,-0.127957 -0.05036,0.23354 -0.03995,-0.134086 0.003,-0.226203 -0.04916,-0.582531 -0.0775,-0.124417 -0.006,-0.359837 -0.03014,-0.05698 -0.02573,-0.505824 -0.001,-0.425347 -0.03585,0.651527 -0.04676,0.01476 -0.002,-0.332984 0.004,-0.858538 -0.004,-0.196221 -0.007,0.182751 -0.01321,-0.976546 -0.01552,-0.30481 -0.002,0.341057 4.71e-4,0.723161 -0.01873,0.151306 -0.06358,-0.269846 -0.01853,1.057135 -0.06007,0.430375 -0.002,0.272879 -0.103861,0.642359 -0.218876,0.392445 -0.09982,0.354648 -0.01762,1.368913 -0.04756,1.29905 0.001,-0.288595 -0.006,-1.291497 -0.008,-0.512177 0.002,0.30739 -0.001,1.295866 -0.02523,0.801135 -1.3e-4,0.287344 -0.01792,-0.895594 -0.02233,-0.13472 0.003,0.280281 -0.01402,0.782076 -0.01001,0.216693 0.003,-0.333418 -0.01351,-0.631063 -0.009,-0.129732 -0.007,1.052254 -0.003,-1.065772 -0.009,-0.678176 0.003,0.340969 -0.009,1.521487 -0.01001,0.603101 -0.001,-0.3041 -0.002,-1.112675 -0.003,-1.124453 -0.001,0.386831 -6.91e-4,1.334517 -0.006,1.383191 -0.002,-0.401929 2.9e-4,-1.546055 -0.009,-1.467076 0.001,0.313087 -0.003,1.528611 -0.01001,0.647884 -0.002,-0.245154 -5.62e-4,-1.133828 -0.01001,-0.939748 -0.004,0.681118 -0.004,1.362243 -0.01282,2.043355 -0.01301,-0.734721 -0.006,-1.46947 -0.01131,-2.204201 -0.001,0.589575 -0.002,1.873704 -0.004,2.021798 -10e-4,-0.70965 -0.002,-1.419303 -0.006,-2.128952 -0.003,0.585377 0.003,1.861444 -0.01102,2.007736 -4.41e-4,-0.311814 -0.008,-0.547867 -0.006,-0.10643 0.006,0.272657 -0.01893,0.948038 -0.01412,0.302971 -3.6e-4,-0.335524 -0.003,-0.946805 -8.4e-4,-0.283579 -0.07289,-0.110578 -0.03895,-0.57923 -0.05206,-0.09185 -0.01001,0.65751 -0.139126,-0.771918 -0.110069,-1.075361 -0.01101,0.313345 -0.004,-0.394612 -0.01101,0.102454 0.009,-0.326886 -0.03044,-0.631327 -0.02403,-0.124166 2.6e-4,0.330439 -0.003,1.332368 -0.007,0.485466 -0.001,-0.296098 -0.004,-1.699464 -0.007,-0.791888 0.003,0.286566 -0.008,1.583887 -0.01622,0.695978 -0.02193,-0.215036 -0.01602,1.350341 -0.01913,0.375239 -0.03404,-0.228037 -0.01442,-0.825211 -0.03064,-0.24512 -0.01341,0.435265 0.004,-0.921222 -0.01482,-0.446851 -0.008,-0.58232 -0.06929,-1.530879 -0.06498,-1.897322 -0.03214,0.939178 0.002,-0.783558 -0.123896,-0.278412 -0.03734,-0.166321 -0.05417,-0.08939 -0.07159,-0.378853 -0.001,0.370521 -0.01131,0.265848 -0.02934,0.26456 -0.01602,0.696349 -0.003,1.901973 -0.01112,2.279616 -0.001,-0.414886 -0.001,-1.399709 -0.004,-1.489322 -10e-4,0.501032 -0.002,1.002063 -0.004,1.503094 0.01001,-0.252201 -0.01913,-0.891249 -0.01833,-0.296494 -0.02083,-0.198155 -0.02293,0.07932 -0.02793,-0.290021 -0.05587,0.04893 -0.05267,-0.822022 -0.07429,-1.138379 -0.06959,-0.405916 0.09452,-0.590844 -0.132738,-0.609985 0.02473,0.379916 -0.03895,1.113094 -0.04936,0.320938 -0.01392,-0.752384 -0.02293,1.258023 -0.03004,0.31231 -0.006,0.342973 -0.03204,1.693562 -0.08972,0.729484 0.003,-0.401152 -0.001,-0.893502 -0.04146,-0.558421 -0.002,-0.414905 -0.07009,-0.176119 -0.05267,-0.611903 -0.01392,-0.334953 0.01602,-1.188373 -0.09652,-0.420219 -0.275146,0.07092 -0.04155,0.689002 -0.166229,0.340583 -0.01732,0.342879 -0.02643,-0.428446 -0.03084,0.154373 -0.01552,0.559414 -0.001,1.552575 -0.02033,1.850686 -0.006,-0.32987 0.002,-1.22767 -0.01001,-1.186505 -0.01001,0.532264 -0.01281,-0.310083 -0.01943,0.264355 -0.01371,0.519403 -0.01171,1.599727 -0.01692,1.767553 0.003,-0.376385 -0.01782,-0.494499 -0.01192,-0.05429 -10e-4,0.573928 -0.009,0.413991 -0.007,-0.05935 0.001,-0.337591 0.01171,-1.403094 -0.05697,-0.651014 -0.01552,-0.26481 -0.02953,-0.612874 -0.05997,-0.592657 -0.05557,-0.383691 0.007,-0.810744 -0.07139,-0.942435 -0.01461,-0.22372 -0.003,0.17236 -0.03094,-0.157951 -0.139826,-0.770372 -0.09932,0.469635 -0.123405,0.755857 2.1e-4,0.585571 -0.002,-1.007511 -0.01442,-0.162421 0.01192,0.640141 -0.04676,1.191027 -0.05016,0.639647 0.006,0.409227 -0.05367,0.424549 -0.03714,0.0087 0.01291,-0.337396 -0.03224,0.807285 -0.03514,0.06567 0.002,-0.289761 -0.02303,0.334783 -0.05136,-0.14351 -0.06889,0.757741 -0.05877,-1.101502 -0.153234,-0.476444 0.05367,-0.664194 -0.179175,-0.234232 -0.149017,-0.229901 0.009,-0.273674 -0.01702,-1.559018 -0.05497,-0.677128 -0.009,0.361321 0.01001,1.378378 -0.01813,1.309707 0.002,-0.252233 -0.01723,-0.783699 -0.01913,-0.230995 0.02093,0.413901 -0.05687,0.594647 -0.05106,0.08165 -0.03694,0.288012 -0.03624,0.909762 -0.05657,0.23699 -5.81e-4,-0.133059 -0.03014,-0.683074 -0.02893,-0.233323 -0.06268,-0.519485 -0.02553,-1.54885 -0.131175,-1.370846 -0.009,-0.380732 -0.05767,0.145622 -0.07529,0.04587 -0.01111,0.27288 0.009,0.464265 -0.01602,0.0766 -0.03794,1.263084 -0.007,2.526815 -0.02373,3.790151 0.01001,-0.236588 -0.01412,-0.728916 -0.01202,-0.218223 0.001,-0.435533 -0.01792,-0.587884 -0.007,-0.06815 0.01141,0.343707 -0.04065,0.876286 -0.03094,0.217409 0.002,-0.380754 -0.004,-0.659752 -0.003,-0.124683 -3.5e-4,0.42069 -0.006,0.539501 -0.004,0.04951 -7.21e-4,-0.600536 -0.01202,0.545674 -0.009,-0.206916 -0.001,-0.6268 2.3e-4,-1.761634 -0.009,-2.073624 -0.01141,0.974242 0.02393,1.948624 -0.02533,2.922752 -0.03194,-0.932749 -0.01943,-1.86562 -0.02713,-2.79843 -0.001,0.34274 -0.001,1.187106 -0.004,1.225792 -0.001,-0.398332 -0.001,-1.273666 -0.004,-1.374525 -10e-4,0.923935 -0.01161,1.847862 -0.01311,2.771796 -0.02313,-0.446785 -0.002,-1.344577 -0.01291,-1.968876 -0.01382,0.37177 0.001,1.399089 -0.02123,2.021713 0.06879,-0.246068 -0.118239,-0.524439 -0.07199,-0.09195 -0.03004,-0.339282 -0.04736,-0.935962 -0.05096,-0.259268 -0.04306,0.583398 -0.131256,-0.45597 -0.107195,-0.826731 0.009,-0.278082 -0.01232,-1.054518 -0.01582,-0.362653 -0.01903,0.402112 -0.009,-1.120536 -0.02743,-0.236963 0.009,-0.34396 -0.03264,-1.065974 -0.05377,-0.46059 -0.002,0.312217 -0.008,0.684385 -0.01001,0.158488 0.006,-0.38308 -0.01281,-0.615232 -0.01001,-0.104857 0.004,0.815127 -0.02243,-0.24611 -0.04606,-0.417041 -0.03094,0.757599 -0.07319,-1.068726 -0.0769,-0.218918 0.007,0.302363 -0.01282,1.112896 -0.01412,0.387036 0.01331,-0.312678 -0.02883,-0.852262 -0.07169,-0.763921 -0.04426,-0.328159 -0.03344,0.802033 -0.04276,0.06524 -0.01923,-0.440209 0.03765,-1.374271 -0.09502,-1.525104 10e-6,0.358191 -0.01732,0.74825 -0.03374,0.159772 -0.05066,-0.453292 -0.0815,0.600041 -0.0842,-0.0036 0.008,-0.317372 -0.0784,-1.253875 -0.07549,-0.442353 -0.01272,0.454248 -0.01713,-0.515437 -0.03574,0.06985 -0.04266,1.357521 -0.02013,2.715198 -0.03014,4.072793 -0.009,-0.68833 -0.004,-1.870692 -0.009,-2.252157"
       id="path21"
       sodipodi:nodetypes="cccccccccccccccccccccccccccccccccccccccccccccccccccccccccccccccccccccccccccccccccccccccccccccccccccccccccccccccccccccccccccccccccccccccccccccccccccccccccccccccccccccccccccccccccccccccccccccccccccccccccccccccccccccccccccccccccccccccccccccccccccccccccccccccccccccccccccccccccccccccccccccccccccccccccccccccccccccccccccccccccccccccccccccccccccccccccccccccccccccccccccccccccccccccccccccccccccccccccccccccccccccccccccccccccccccccccccccccccccccccccccccccccccccccccccccccccccccccccccccccccccccccccccccccccccccccccccccccccccccccccccccccccccccccccccccccccccccccccccccccccccccccccccccccccccccccccccccccccccccccccccccccccccccccccccccccccccccccccccccccccccccccccccccccccccccccccccccccccccccccccccccccccccccccccccccccccccccccccccccccccccccccccccccccccccccccccccccccccccccccccccccccccccccccccccc" />
    <path
       sodipodi:type="star"
       style="fill:none;fill-opacity:1;stroke:#ee1d8e;stroke-width:0.975664;stroke-linecap:round;stroke-miterlimit:4;stroke-dasharray:none;stroke-opacity:1"
       id="path1"
       sodipodi:sides="6"
       sodipodi:cx="33.866665"
       sodipodi:cy="55.832291"
       sodipodi:r1="19.926361"
       sodipodi:r2="17.335934"
       sodipodi:arg1="1.4684895"
       sodipodi:arg2="1.9920883"
       inkscape:flatsided="false"
       inkscape:rounded="0"
       inkscape:randomized="0"
       d="m 35.901713,75.654461 -9.124401,-4.002067 -9.059626,-4.146614 -1.096309,-9.902998 -0.93874,-9.919173 8.028093,-5.90093 8.120886,-5.772559 9.124402,4.002067 9.059626,4.146615 1.096309,9.902997 0.938739,9.919173 -8.028092,5.90093 z"
       inkscape:transform-center-x="1.76784"
       inkscape:transform-center-y="4.9021042"
       transform="matrix(1.2345274,0.12558609,-0.12558609,1.2345274,12.712733,-33.921037)" />
    <text
       xml:space="preserve"
       style="font-style:normal;font-variant:normal;font-weight:bold;font-stretch:normal;font-size:4.86056px;line-height:1.25;font-family:Consolas;-inkscape-font-specification:'Consolas Bold';text-align:center;letter-spacing:0px;word-spacing:0px;text-anchor:middle;fill:#47194a;fill-opacity:1;stroke-width:0.260386"
       x="64.202278"
       y="32.128567"
       id="text1-7"><tspan
         sodipodi:role="line"
         id="tspan1"
         style="font-style:normal;font-variant:normal;font-weight:bold;font-stretch:normal;font-size:4.86056px;font-family:Consolas;-inkscape-font-specification:'Consolas Bold';fill:#47194a;fill-opacity:1;stroke-width:0.260386"
         x="64.202278"
         y="32.128567">2</tspan></text>
  </g>
</svg>
