<?xml version="1.0" encoding="UTF-8" standalone="no"?>
<svg
   viewBox="0 0 174 200"
   width="174"
   height="200"
   role="img"
   aria-label="ninetails logo placeholder"
   version="1.1"
   id="svg2"
   sodipodi:docname="ninetails.svg"
   inkscape:version="1.4 (86a8ad7, 2024-10-11)"
   xmlns:inkscape="http://www.inkscape.org/namespaces/inkscape"
   xmlns:sodipodi="http://sodipodi.sourceforge.net/DTD/sodipodi-0.dtd"
   xmlns="http://www.w3.org/2000/svg"
   xmlns:svg="http://www.w3.org/2000/svg">
  <defs
     id="defs2" />
  <sodipodi:namedview
     id="namedview2"
     pagecolor="#ffffff"
     bordercolor="#666666"
     borderopacity="1.0"
     inkscape:showpageshadow="2"
     inkscape:pageopacity="0.0"
     inkscape:pagecheckerboard="0"
     inkscape:deskcolor="#d1d1d1"
     inkscape:zoom="4.145"
     inkscape:cx="87.092883"
     inkscape:cy="100"
     inkscape:window-width="1920"
     inkscape:window-height="1009"
     inkscape:window-x="1912"
     inkscape:window-y="-8"
     inkscape:window-maximized="1"
     inkscape:current-layer="svg2" />
  <title
     id="title1">ninetails logo placeholder</title>
  <g
     id="g2"
     transform="matrix(3.7779638,0,0,3.8852955,-269.44806,-52.93578)">
    <path
       sodipodi:type="star"
       style="fill:none;fill-opacity:1;stroke:#0580ab;stroke-width:0.975664;stroke-linecap:round;stroke-miterlimit:4;stroke-dasharray:none;stroke-opacity:1"
       id="path899"
       sodipodi:sides="6"
       sodipodi:cx="33.866665"
       sodipodi:cy="55.832291"
       sodipodi:r1="19.926361"
       sodipodi:r2="17.335934"
       sodipodi:arg1="1.4684895"
       sodipodi:arg2="1.9920883"
       inkscape:flatsided="false"
       inkscape:rounded="0"
       inkscape:randomized="0"
       d="m 35.901713,75.654461 -9.124401,-4.002067 -9.059626,-4.146614 -1.096309,-9.902998 -0.93874,-9.919173 8.028093,-5.90093 8.120886,-5.772559 9.124402,4.002067 9.059626,4.146615 1.096309,9.902997 0.938739,9.919173 -8.028092,5.90093 z"
       inkscape:transform-center-x="1.76784"
       inkscape:transform-center-y="4.9021042"
       transform="matrix(1.2345274,0.12558609,-0.12558609,1.2345274,59.567704,-33.800434)" />
    <g
       id="g953"
       transform="translate(34.887463,-41.347269)">
      <path
         style="fill:#495b67;fill-opacity:1;stroke-width:0.133236"
         d="m 65.783334,77.800417 c 0.05373,-4.4e-4 0.101069,0.01197 0.14095,0.04032 0.548184,0.389072 0.490958,2.24723 0.489333,3.630033 0.01824,0.500864 -0.06788,1.021338 -0.162489,1.503091 -0.239823,1.245963 -0.543969,2.591149 -0.597379,2.801696 l 0.391084,0.866916 c 0.08863,0.165401 0.188378,0.343688 0.295956,0.526353 0.123165,0.275061 1.115933,0.746918 1.000289,1.030842 -0.190699,0.468197 -0.636889,0.864115 -1.021027,1.373975 -0.450891,0.59845 -2.506677,0.506526 -3.442797,0.892452 -0.463987,0.161958 -1.12953,0.526826 -1.964326,1.376864 -0.553737,0.83337 -0.78382,1.418067 -1.018123,1.708079 -0.128195,0.09103 -0.231145,0.08031 -0.33878,0.142739 -0.06388,0.03693 -0.110198,0.150925 -0.15803,0.182996 -0.12267,0.04735 -0.396605,0.04404 -0.465241,0 -0.04779,-0.03206 -0.09411,-0.145946 -0.158007,-0.182996 -0.107684,-0.06244 -0.2106,-0.05182 -0.338786,-0.142739 -0.234311,-0.290025 -0.464394,-0.874709 -1.018126,-1.708079 -0.915388,-0.932072 -1.628553,-1.282004 -2.094024,-1.419244 -0.97902,-0.337519 -2.896889,-0.274561 -3.330499,-0.850072 -0.384134,-0.50986 -0.830313,-0.905778 -1.021027,-1.373975 -0.107347,-0.263529 0.740256,-0.688886 0.96114,-0.968615 0.01224,-0.01028 0.02645,-0.0205 0.03761,-0.02963 0.115127,-0.194252 0.220871,-0.383565 0.314804,-0.558924 l 0.391088,-0.866916 c -0.05337,-0.210547 -0.388362,-1.550193 -0.597381,-2.801695 -0.208424,-1.150447 -0.321913,-4.733189 0.326844,-5.133138 0.407587,-0.193089 1.703107,1.165626 2.426343,1.893076 0.682743,0.686741 1.773631,2.300785 1.773631,2.300771 1.760856,-0.925957 3.343765,-0.948983 5.117753,0 0,0 1.090891,-1.61403 1.773636,-2.300771 0.655439,-0.659256 1.766475,-1.926189 2.285493,-1.933333 z m -0.517774,2.077648 c -0.1062,-0.0054 -0.261561,0.05804 -0.400222,0.193813 -0.145549,0.142401 -0.320984,0.343059 -0.389747,0.446063 -0.06878,0.102998 -0.140237,0.195416 -0.158902,0.205407 -0.01873,0.01028 -0.06707,0.06203 -0.107569,0.115519 -0.04051,0.05351 -0.101295,0.128946 -0.135048,0.167707 -0.03378,0.03876 -0.07084,0.109512 -0.08236,0.15702 -0.0116,0.04756 -0.07426,0.06535 -0.139378,0.03971 -0.06514,-0.02577 -0.109512,0.0054 -0.09844,0.0689 0.01143,0.06365 -0.310924,0.490805 -0.71537,0.949214 -0.231384,0.262263 -0.377806,0.461419 -0.457324,0.616125 0.20897,0.16164 0.680483,0.200983 1.190306,0.365768 0.524454,0.174933 0.959944,0.867451 1.173248,1.207371 0.05932,-0.309865 0.140972,-0.686024 0.176974,-1.068541 0.07791,-0.827877 0.05031,-1.654374 0.06547,-1.736612 0.01793,-0.09719 0.03387,-0.190443 0.03551,-0.207199 8.8e-4,-0.01678 0.01408,-0.04038 0.02754,-0.05222 0.01355,-0.01197 0.02271,-0.221642 0.02076,-0.465796 -0.0046,-0.500688 0.0031,-0.555319 0.0989,-0.782616 0.05886,-0.139729 0.0022,-0.214052 -0.104146,-0.21945 z m -12.219326,0 c -0.106083,0.0054 -0.163054,0.07974 -0.104148,0.219457 0.09582,0.227297 0.102896,0.281907 0.0989,0.782609 -0.002,0.244154 0.0068,0.453775 0.02077,0.465796 0.0136,0.01197 0.02598,0.03558 0.0276,0.05222 6.76e-4,0.01678 0.01772,0.109965 0.03558,0.207186 0.01515,0.08224 -0.01251,0.908741 0.06535,1.736612 0.02949,0.314431 0.09034,0.624892 0.144417,0.899034 0.236415,-0.36361 0.619825,-0.889273 1.065287,-1.037857 0.599692,-0.193839 1.146376,-0.214153 1.274734,-0.464233 -0.08579,-0.138762 -0.215973,-0.307803 -0.401125,-0.517661 -0.404437,-0.458422 -0.726364,-0.885525 -0.715372,-0.949213 0.01143,-0.06365 -0.03342,-0.09468 -0.09855,-0.06901 -0.06514,0.02577 -0.127837,0.008 -0.139398,-0.03957 -0.01157,-0.04756 -0.04857,-0.118259 -0.08236,-0.157013 -0.03375,-0.03876 -0.09445,-0.11422 -0.134933,-0.167708 -0.04052,-0.05351 -0.08909,-0.105521 -0.107679,-0.115532 -0.01867,-0.01028 -0.09001,-0.102436 -0.158805,-0.20542 -0.06878,-0.103012 -0.244181,-0.303649 -0.389735,-0.446044 -0.138661,-0.135677 -0.294205,-0.199217 -0.400335,-0.193832 z m 11.153593,7.312438 v 1.08e-4 c -0.03617,6.77e-4 -0.0989,0.02672 -0.195041,0.07677 -0.501757,0.26095 -1.439028,-0.116101 -1.648521,0.04181 -0.323063,0.187697 -0.625227,0.48427 -0.896136,0.826659 0.09365,0.229333 0.290642,0.400538 0.53081,0.461224 0.417625,0.10483 0.841152,-0.148761 0.945976,-0.566393 0.0325,-0.130346 0.0309,-0.266923 -0.0046,-0.396418 0.120651,0.245629 0.150332,0.526075 0.08372,0.791524 -0.155569,0.619637 -0.783966,0.995876 -1.403626,0.840372 -0.2538,-0.06413 -0.47835,-0.212401 -0.636977,-0.420636 -0.331618,0.55358 -0.580428,1.118816 -0.709345,1.49653 -0.06981,0.209147 -0.09331,0.388619 -0.05247,0.398901 0.727607,-1.024632 1.635618,-0.655996 3.055732,-1.815365 0.246713,-0.250993 0.682445,-1.010609 0.874153,-1.433288 0.08601,-0.189746 0.124998,-0.289673 0.0705,-0.300767 -0.0046,-6.76e-4 -0.0091,-6.76e-4 -0.0139,-6.76e-4 z m -10.044019,1.08e-4 c -0.0054,-1.82e-4 -0.01028,2.17e-4 -0.01393,6.77e-4 -0.05452,0.01143 -0.01563,0.110986 0.07039,0.30076 0.191702,0.422679 0.627557,1.182308 0.874267,1.433281 1.420124,1.159389 2.328008,0.79074 3.055615,1.815358 0.04095,-0.01028 0.01731,-0.18974 -0.05247,-0.398887 -0.128903,-0.377721 -0.377731,-0.942964 -0.709344,-1.496537 -0.158597,0.208228 -0.383098,0.356514 -0.636867,0.420649 -0.619693,0.155559 -1.248174,-0.220688 -1.403742,-0.840385 -0.0665,-0.265449 -0.03683,-0.545915 0.08384,-0.791531 -0.03582,0.129522 -0.03741,0.266085 -0.0046,0.396439 0.104828,0.417625 0.528355,0.671196 0.945976,0.566385 0.240168,-0.06068 0.437189,-0.231883 0.530807,-0.461223 -0.270898,-0.342389 -0.573185,-0.638963 -0.896236,-0.82666 -0.209519,-0.157919 -1.146661,0.219133 -1.648404,-0.0418 -0.09616,-0.04999 -0.15892,-0.07564 -0.195057,-0.07678 z"
         id="path941"
         inkscape:connector-curvature="0"
         sodipodi:nodetypes="ccccccccccccccccccccccccscccccccccccccccccccccccccccccccccccccccccscccccccccccccccccccccccccccccccccccccccccsc" />
      <path
         style="fill:#0580ab;fill-opacity:1;stroke-width:0.117137"
         d="m 61.926851,100.97023 c 1.893987,-0.35657 3.667471,-1.081521 5.356606,-2.189601 0.783191,-0.513784 0.958412,-0.697239 1.413483,-1.479929 0.946356,-1.627675 1.253921,-2.581867 1.345604,-4.17465 0.07953,-1.381701 -0.175766,-2.612443 -0.808541,-3.897789 l -0.38439,-0.78081 -0.08503,0.680741 c -0.218006,1.74525 -0.991005,3.729811 -2.007205,5.153202 -0.673684,0.943619 -2.143286,2.336982 -3.21615,3.0493 -3.141019,2.085448 -7.778426,2.629307 -12.240166,1.435493 -0.567556,-0.151858 -0.989253,-0.235063 -0.937098,-0.18489 0.19486,0.18746 2.469548,1.264937 3.316088,1.570773 1.824115,0.659 3.180682,0.90033 5.329745,0.94813 1.434082,0.0319 2.250385,-0.005 2.917058,-0.12997 z m 8.449139,-4.763405 c 1.557032,-1.71972 2.604475,-3.499043 3.122929,-5.305019 0.226826,-0.790111 0.26911,-1.212701 0.269588,-2.694159 l 4.43e-4,-1.757054 -0.56024,-0.841495 c -0.765716,-1.150108 -2.065378,-2.517806 -3.178119,-3.344479 -0.838757,-0.623127 -2.626518,-1.583205 -3.333304,-1.790079 -0.270416,-0.07915 -0.26798,-0.06717 0.09272,0.457117 0.95406,1.386679 1.777331,3.726124 1.953738,5.551838 0.06012,0.62218 0.160903,0.916961 0.481125,1.407183 0.532246,0.814815 1.021956,1.907553 1.273724,2.842196 0.43042,1.597877 0.1954,4.011258 -0.53856,5.530382 -0.126888,0.262621 -0.211444,0.496764 -0.187905,0.520305 0.02355,0.02354 0.295221,-0.23599 0.603729,-0.576736 z M 54.148401,92.307278 c -0.912563,-0.810493 -1.217855,-1.736321 -2.204606,-2.469535 -0.37281,-0.277016 -1.14289,-1.228571 -1.292313,-1.665428 -0.09095,-0.265916 0.273039,-0.316799 0.182129,-0.56146 -0.263582,-0.709416 -0.357623,-1.274861 -0.403372,-1.970288 -0.04363,-0.66366 -0.144667,-1.11151 -0.337573,-1.496706 -0.783028,-1.563573 -1.192428,-4.122068 -0.987549,-6.171495 0.06874,-0.687566 0.173735,-1.42009 0.233311,-1.627837 0.188759,-0.658161 0.0088,-0.411997 -0.51603,0.705797 -0.875053,1.863779 -1.315408,4.248878 -1.19487,6.471836 0.21895,4.037965 2.134025,6.891173 5.899052,8.788829 0.567596,0.286075 1.07329,0.520914 1.12376,0.521861 0.05046,6.77e-4 -0.175399,-0.23557 -0.501939,-0.525574 z M 74.52254,84.728762 c 0.0044,-0.04505 -0.0999,-0.640661 -0.23169,-1.323587 -1.150726,-5.962936 -4.688253,-10.216732 -9.934383,-11.945862 -0.823434,-0.271409 -1.092937,-0.310237 -1.69849,-0.244702 -1.212847,0.131253 -2.192483,0.414994 -3.35534,0.971841 -0.909863,0.435694 -1.27484,0.695481 -2.001291,1.424507 -0.806997,0.80985 -1.591445,1.973819 -1.798258,2.668265 -0.06684,0.224422 0.07087,0.180256 1.188438,-0.381158 1.889763,-0.949335 2.739084,-1.144358 5.012424,-1.150988 1.686327,-0.0047 1.991607,0.02658 3.045563,0.313979 1.40044,0.381915 3.221848,1.261406 4.291326,2.072128 2.162809,1.639526 3.759659,3.846676 5.342739,7.384643 0.07207,0.161065 0.134601,0.255986 0.138962,0.210934 z m -1.397716,-0.498334 c 0,-0.03775 -0.231408,-0.528869 -0.514241,-1.091304 -1.295001,-2.575224 -3.749534,-4.95987 -6.418514,-6.235772 -2.083398,-0.995957 -4.400833,-1.247546 -6.596589,-0.71614 -0.924645,0.223779 -3.902119,1.563201 -3.109317,1.397225 0.947774,-0.198419 2.757104,-0.284471 3.761325,-0.178903 1.23209,0.297385 2.926839,0.454797 3.986975,1.218999 1.03175,-0.940541 1.664032,-1.229653 1.939765,-0.948909 0.478621,0.487321 0.310766,2.096346 0.511889,2.144137 2.139366,0.686735 3.85164,1.746306 5.48814,3.475152 0.522813,0.552315 0.950567,0.973295 0.950567,0.935515 z M 50.688802,83.033076 c 0.13195,-0.706521 0.440997,-1.409497 0.948449,-2.273078 0.137084,-0.233283 -0.073,-2.721251 0.48078,-3.433447 0.239344,-0.307823 1.371709,0.994773 1.629081,0.721186 0.758832,-0.806643 0.673253,-0.766658 0.995822,-1.658108 0.469479,-1.297475 1.269423,-2.517367 2.235976,-3.409819 0.994875,-0.918604 1.858425,-1.421287 3.231429,-1.88107 l 1.120431,-0.375197 -1.186999,-0.08496 c -3.206725,-0.229515 -5.989938,0.574226 -8.235158,2.378179 -1.10576,0.888434 -1.368064,1.304889 -1.740231,2.762928 -0.563247,2.206642 -0.580868,4.299105 -0.05371,6.377247 0.330991,1.304794 0.457895,1.498464 0.574124,0.876143 z"
         id="path943"
         inkscape:connector-curvature="0"
         sodipodi:nodetypes="ccccccsccscscccccccccsccccccccsscccccsccccscsccccccsccscsccccscsssscsccscscccsccc" />
    </g>
    <text
       xml:space="preserve"
       style="font-style:normal;font-weight:normal;font-size:6.39516px;line-height:1.25;font-family:sans-serif;letter-spacing:0px;word-spacing:0px;fill:#495b67;fill-opacity:1;stroke:none;stroke-width:0.159879"
       x="76.356926"
       y="28.36768"
       id="text949"><tspan
         sodipodi:role="line"
         id="tspan947"
         x="76.356926"
         y="28.36768"
         style="font-style:normal;font-variant:normal;font-weight:normal;font-stretch:normal;font-family:'OCR-A BT';-inkscape-font-specification:'OCR-A BT';fill:#495b67;fill-opacity:1;stroke-width:0.159879"
         transform="matrix(0.61127784,0,0,0.92236483,18.019409,4.8107954)">ninetails</tspan></text>
  </g>
</svg>
