<?xml version="1.0" encoding="UTF-8" standalone="no"?>
<svg
   viewBox="0 0 64 64"
   role="img"
   aria-label="NG"
   version="1.1"
   id="svg1"
   sodipodi:docname="favicon.svg"
   inkscape:version="1.4 (86a8ad7, 2024-10-11)"
   xmlns:inkscape="http://www.inkscape.org/namespaces/inkscape"
   xmlns:sodipodi="http://sodipodi.sourceforge.net/DTD/sodipodi-0.dtd"
   xmlns="http://www.w3.org/2000/svg"
   xmlns:svg="http://www.w3.org/2000/svg">
  <defs
     id="defs1" />
  <sodipodi:namedview
     id="namedview1"
     pagecolor="#ffffff"
     bordercolor="#666666"
     borderopacity="1.0"
     inkscape:showpageshadow="2"
     inkscape:pageopacity="0.0"
     inkscape:pagecheckerboard="0"
     inkscape:deskcolor="#d1d1d1"
     inkscape:zoom="6.4765625"
     inkscape:cx="18.373945"
     inkscape:cy="47.942099"
     inkscape:window-width="1920"
     inkscape:window-height="1009"
     inkscape:window-x="-8"
     inkscape:window-y="-8"
     inkscape:window-maximized="1"
     inkscape:current-layer="svg1" />
  <path
     id="rect10"
     style="fill:#162d50;fill-opacity:1;stroke:none;stroke-width:0.108862;stroke-linecap:round;stroke-linejoin:round;stroke-miterlimit:2.7"
     d="M -0.58363088,0.16371108 V 64.686028 H 63.938465 V 0.16371108 Z M 36.624573,13.920566 c 6.176309,4.61e-4 11.946913,3.076054 15.390533,8.203257 l -1.583947,1.048161 c -3.091494,-4.596602 -8.267083,-7.354125 -13.806586,-7.356042 -0.06852,0.0045 -0.136995,0.0097 -0.20545,0.01511 v 29.65909 L 34.525999,43.345434 V 15.968986 C 28.00997,16.80574 22.595591,21.396473 20.704786,27.688022 L 19.272055,26.065144 C 21.947308,18.786408 28.86979,13.941681 36.624573,13.92059 Z m -28.3692551,1.324942 1.6361545,1.847224 0.00344,-0.003 28.6689896,32.367934 -1.64335,1.471657 -26.77226,-30.226373 v 0.0067 30.19105 H 8.2554119 v -32.328329 -0.0067 l -0.00396,-0.0045 0.00396,-0.0034 v -0.016 z m 9.8909421,16.339684 1.936333,2.193536 c 0.59873,7.354709 5.968052,13.437437 13.191594,14.944306 l 1.251812,1.418108 0.353963,0.400767 0.316605,0.358687 C 25.557286,50.155977 18.10808,42.129632 18.083479,32.461665 c 0.01401,-0.292613 0.03491,-0.58485 0.06278,-0.876473 z m 21.839052,1.683633 h 14.865321 v 0.0015 h 0.252931 C 54.725643,41.554389 48.892855,48.580163 40.819699,50.475663 L 39.395748,48.862465 C 46.454794,47.64762 51.864384,42.09379 52.995083,35.16232 H 39.985312 Z" />
</svg>
