<?xml version="1.0" encoding="UTF-8" standalone="no"?>
<svg
   viewBox="0 0 40 40"
   role="img"
   aria-label="NG monogram"
   version="1.1"
   id="svg1"
   sodipodi:docname="logo.svg"
   inkscape:version="1.4 (86a8ad7, 2024-10-11)"
   xmlns:inkscape="http://www.inkscape.org/namespaces/inkscape"
   xmlns:sodipodi="http://sodipodi.sourceforge.net/DTD/sodipodi-0.dtd"
   xmlns="http://www.w3.org/2000/svg"
   xmlns:svg="http://www.w3.org/2000/svg">
  <defs
     id="defs1" />
  <sodipodi:namedview
     id="namedview1"
     pagecolor="#ffffff"
     bordercolor="#666666"
     borderopacity="1.0"
     inkscape:showpageshadow="2"
     inkscape:pageopacity="0.0"
     inkscape:pagecheckerboard="0"
     inkscape:deskcolor="#d1d1d1"
     inkscape:zoom="5.18125"
     inkscape:cx="19.396864"
     inkscape:cy="41.206273"
     inkscape:window-width="1904"
     inkscape:window-height="953"
     inkscape:window-x="2055"
     inkscape:window-y="41"
     inkscape:window-maximized="0"
     inkscape:current-layer="svg1" />
  <text
     x="20"
     y="27"
     text-anchor="middle"
     font-family="system-ui, sans-serif"
     font-size="17"
     font-weight="700"
     fill="#ffffff"
     id="text1">NG</text>
  <path
     id="rect10"
     style="fill:#162d50;fill-opacity:1;stroke:none;stroke-width:0.0684831;stroke-linecap:round;stroke-linejoin:round;stroke-miterlimit:2.7"
     d="M 0.15922797,0.07237634 V 40.662163 H 40.748875 V 0.07237634 Z M 23.566215,8.7265571 c 3.885401,2.899e-4 7.51558,1.9350879 9.681898,5.1605159 l -0.996432,0.659379 C 30.30688,11.654815 27.051013,9.9201084 23.566215,9.9189029 c -0.04311,0.00288 -0.08618,0.00608 -0.129244,0.00949 V 28.586389 l -1.19093,-1.349196 V 10.01518 c -4.099112,0.526387 -7.505197,3.414331 -8.694667,7.372227 L 12.65007,16.366484 C 14.333021,11.787568 18.687825,8.7398402 23.566215,8.726572 Z M 5.719646,9.5600536 6.7489202,10.722108 6.751084,10.720189 24.786211,31.082284 23.75241,32.008076 6.9104807,12.993229 v 0.0042 18.992626 H 5.719705 v -20.337149 -0.0042 l -0.00249,-0.0029 0.00249,-0.0021 v -0.01002 z m 6.222207,10.2789904 1.218111,1.379913 c 0.37665,4.62671 3.75439,8.45324 8.298586,9.401184 l 0.787491,0.892105 0.222672,0.252116 0.19917,0.225643 C 16.603991,31.521579 11.917835,26.472354 11.902359,20.390417 c 0.0088,-0.184077 0.02196,-0.367918 0.03949,-0.551373 z m 13.738541,1.059142 h 9.351496 v 9.44e-4 h 0.159113 c -0.237743,5.21135 -3.90704,9.631134 -8.985712,10.823557 l -0.895782,-1.014832 c 4.440715,-0.764237 7.843787,-4.258048 8.555089,-8.618506 h -8.184204 z" />
</svg>
